<svg xmlns="http://www.w3.org/2000/svg" xmlns:xlink="http://www.w3.org/1999/xlink" xmlns:lucid="lucid" width="1300" height="1183.69"><g transform="translate(-220.00000000000003 -40.00000000000001)" lucid:page-tab-id="0_0"><path d="M0 0h1671.95v1291.96H0z" fill="#3d4752"/><path d="M789.33 141.7c0-2.77 2.24-5 5-5h270c2.76 0 5 2.23 5 5v110c0 2.75-2.24 5-5 5h-270c-2.76 0-5-2.25-5-5z" stroke="#000" stroke-opacity="0" stroke-width="2" fill="#286cbc"/><use xlink:href="#a" transform="matrix(1,0,0,1,789.3333333333333,136.6931951091708) translate(64.37503529838108 66.12485653376442)"/><path d="M280 765.87c0-2.76 2.24-5 5-5h270c2.76 0 5 2.24 5 5v110c0 2.76-2.24 5-5 5H285c-2.76 0-5-2.24-5-5z" stroke="#000" stroke-opacity="0" stroke-width="2" fill="#286cbc"/><use xlink:href="#b" transform="matrix(1,0,0,1,280,760.8735319232562) translate(47.404078652742186 66.12485653376442)"/><use xlink:href="#c" transform="matrix(1,0,0,1,280,760.8735319232562) translate(116.0535123020183 66.12485653376442)"/><path d="M286.86 880.87v87.82c0 2.75 2.23 5 5 5h70.67" stroke="#bed9ff" stroke-width="4" fill="none"/><path d="M285 880.87h-.14v-.04zM377.53 973.7l-14.27 4.63v-9.27z" fill="#bed9ff"/><path d="M384 973.7l-22.74 7.38V966.3zm-18.74 1.88l5.8-1.9-5.8-1.87z" fill="#bed9ff"/><path d="M286.86 880.87v257.82c0 2.75 2.23 5 5 5h70.67" stroke="#bed9ff" stroke-width="4" fill="none"/><path d="M285 880.87h-.14v-.04zM377.53 1143.7l-14.27 4.63v-9.27z" fill="#bed9ff"/><path d="M384 1143.7l-22.74 7.38v-14.77zm-18.74 1.88l5.8-1.9-5.8-1.87z" fill="#bed9ff"/><path d="M316 65c0-2.76 2.24-5 5-5h370.5c2.75 0 5 2.24 5 5v51.45c0 2.76-2.25 5-5 5H321c-2.76 0-5-2.24-5-5z" stroke="#000" stroke-opacity="0" stroke-width="2" fill="#fff" fill-opacity="0"/><use xlink:href="#d" transform="matrix(1,0,0,1,321,65) translate(0 34.29919658908071)"/><use xlink:href="#e" transform="matrix(1,0,0,1,321,65) translate(156.96646216808463 34.29919658908071)"/><path d="M920 256.7v67c0 2.75-2.24 5-5 5H485c-2.76 0-5 2.23-5 5v45.52" stroke="#bed9ff" stroke-width="4" fill="none"/><path fill="#bed9ff"/><path d="M480 394.22l-4.64-14.26h9.28z" fill="#bed9ff"/><path d="M480 400.7l-7.4-22.74h14.8zm-1.88-18.74l1.88 5.8 1.88-5.8z" fill="#bed9ff"/><path d="M716.44 765.7c0-2.77 2.24-5 5-5h270c2.76 0 5 2.23 5 5v110c0 2.75-2.24 5-5 5h-270c-2.76 0-5-2.25-5-5z" stroke="#000" stroke-opacity="0" stroke-width="2" fill="#286cbc"/><use xlink:href="#f" transform="matrix(1,0,0,1,716.4380468261845,760.6931951091708) translate(34.98423068149768 66.12485653376442)"/><use xlink:href="#c" transform="matrix(1,0,0,1,716.4380468261845,760.6931951091708) translate(128.4733602732628 66.12485653376442)"/><path d="M723.3 880.7v87.8c0 2.77 2.23 5 5 5h63.67" stroke="#bed9ff" stroke-width="4" fill="none"/><path d="M721.44 880.7h-.15v-.05zM806.97 973.5l-14.27 4.65v-9.27z" fill="#bed9ff"/><path d="M813.44 973.5l-22.74 7.4v-14.78zm-18.74 1.9l5.8-1.9-5.8-1.87z" fill="#bed9ff"/><path d="M504 1191.7c0 6.62-26.86 12-60 12s-60-5.38-60-12v-96c0-6.63 26.86-12 60-12s60 5.37 60 12z" stroke="#000" stroke-opacity="0" stroke-width="2" fill="#4399ff"/><path d="M504 1095.7c0 6.62-26.86 12-60 12s-60-5.38-60-12" stroke="#000" stroke-opacity="0" stroke-width="2" fill="none"/><use xlink:href="#g" transform="matrix(1,0,0,1,389,1112.6931951091708) translate(24.37571733117794 49.124856533764415)"/><path d="M933.5 1191.5c0 6.64-26.86 12-60 12-33.13 0-60-5.36-60-12v-96c0-6.6 26.87-12 60-12 33.14 0 60 5.4 60 12z" stroke="#000" stroke-opacity="0" stroke-width="2" fill="#4399ff"/><path d="M933.5 1095.5c0 6.64-26.86 12-60 12-33.13 0-60-5.36-60-12" stroke="#000" stroke-opacity="0" stroke-width="2" fill="none"/><use xlink:href="#h" transform="matrix(1,0,0,1,818.5076717756701,1112.5128582950854) translate(10.04185169313206 49.124856533764415)"/><path d="M723.3 946.26v192.25c0 2.77 2.23 5 5 5h63.74" stroke="#bed9ff" stroke-width="4" fill="none"/><path d="M807.04 1143.5l-14.27 4.65v-9.27z" fill="#bed9ff"/><path d="M813.5 1143.5l-22.73 7.4v-14.78zm-18.73 1.9l5.8-1.9-5.8-1.87z" fill="#bed9ff"/><path d="M504 943.7c-6.63 0-12 13.42-12 30 0 16.56 5.37 30 12 30H396c-6.63 0-12-13.44-12-30 0-16.58 5.37-30 12-30z" stroke="#000" stroke-opacity="0" stroke-width="2" fill="#4399ff"/><use xlink:href="#i" transform="matrix(1,0,0,1,389,948.6931951091708) translate(17.570321182550813 31.12485653376441)"/><path d="M933.44 943.5c-6.63 0-12 13.44-12 30 0 16.58 5.37 30 12 30h-108c-6.63 0-12-13.42-12-30 0-16.56 5.37-30 12-30z" stroke="#000" stroke-opacity="0" stroke-width="2" fill="#4399ff"/><use xlink:href="#i" transform="matrix(1,0,0,1,818.4380468261845,948.5128582950854) translate(17.570321182550813 31.12485653376441)"/><path d="M1176.44 765.7c0-2.77 2.24-5 5-5h270c2.76 0 5 2.23 5 5v110c0 2.75-2.24 5-5 5h-270c-2.76 0-5-2.25-5-5z" stroke="#000" stroke-opacity="0" stroke-width="2" fill="#286cbc"/><use xlink:href="#j" transform="matrix(1,0,0,1,1176.4380468261845,760.6931951091708) translate(46.93620766752407 66.12485653376442)"/><use xlink:href="#c" transform="matrix(1,0,0,1,1176.4380468261845,760.6931951091708) translate(116.52138328723642 66.12485653376442)"/><path d="M1183.3 880.7v87.8c0 2.77 2.23 5 5 5h63.67" stroke="#bed9ff" stroke-width="4" fill="none"/><path d="M1181.44 880.7h-.15v-.05zM1266.97 973.5l-14.27 4.65v-9.27z" fill="#bed9ff"/><path d="M1273.44 973.5l-22.74 7.4v-14.78zm-18.74 1.9l5.8-1.9-5.8-1.87z" fill="#bed9ff"/><path d="M1393.5 1191.5c0 6.64-26.86 12-60 12-33.13 0-60-5.36-60-12v-96c0-6.6 26.87-12 60-12 33.14 0 60 5.4 60 12z" stroke="#000" stroke-opacity="0" stroke-width="2" fill="#4399ff"/><path d="M1393.5 1095.5c0 6.64-26.86 12-60 12-33.13 0-60-5.36-60-12" stroke="#000" stroke-opacity="0" stroke-width="2" fill="none"/><use xlink:href="#k" transform="matrix(1,0,0,1,1278.5076717756701,1112.5128582950854) translate(24.460784783035777 49.124856533764415)"/><path d="M1183.3 946.26v192.25c0 2.77 2.23 5 5 5h63.74" stroke="#bed9ff" stroke-width="4" fill="none"/><path d="M1267.04 1143.5l-14.27 4.65v-9.27z" fill="#bed9ff"/><path d="M1273.5 1143.5l-22.73 7.4v-14.78zm-18.73 1.9l5.8-1.9-5.8-1.87z" fill="#bed9ff"/><path d="M1393.44 943.5c-6.63 0-12 13.44-12 30 0 16.58 5.37 30 12 30h-108c-6.63 0-12-13.42-12-30 0-16.56 5.37-30 12-30z" stroke="#000" stroke-opacity="0" stroke-width="2" fill="#4399ff"/><use xlink:href="#i" transform="matrix(1,0,0,1,1278.4380468261845,948.5128582950854) translate(17.570321182550813 31.12485653376441)"/><path d="M340 405.7c0-2.77 2.24-5 5-5h270c2.76 0 5 2.23 5 5v110c0 2.75-2.24 5-5 5H345c-2.76 0-5-2.25-5-5z" stroke="#000" stroke-opacity="0" stroke-width="2" fill="#286cbc"/><use xlink:href="#l" transform="matrix(1,0,0,1,340,400.69319510917086) translate(33.750752629559 66.12485653376442)"/><use xlink:href="#m" transform="matrix(1,0,0,1,340,400.69319510917086) translate(125.53853318416736 66.12485653376442)"/><path d="M780 405.7c0-2.77 2.24-5 5-5h270c2.76 0 5 2.23 5 5v110c0 2.75-2.24 5-5 5H785c-2.76 0-5-2.25-5-5z" stroke="#000" stroke-opacity="0" stroke-width="2" fill="#286cbc"/><use xlink:href="#n" transform="matrix(1,0,0,1,780,400.69319510917086) translate(43.23577351170806 66.12485653376442)"/><use xlink:href="#o" transform="matrix(1,0,0,1,780,400.69319510917086) translate(116.30871465759182 66.12485653376442)"/><path d="M1220 405.7c0-2.77 2.24-5 5-5h270c2.76 0 5 2.23 5 5v110c0 2.75-2.24 5-5 5h-270c-2.76 0-5-2.25-5-5z" stroke="#000" stroke-opacity="0" stroke-width="2" fill="#286cbc"/><use xlink:href="#p" transform="matrix(1,0,0,1,1220,400.69319510917086) translate(83.13240843303458 66.12485653376442)"/><path d="M510 154.94c24.3 0 44 18.7 44 41.75s-19.7 41.74-44 41.74H378c-24.3 0-44-18.7-44-41.75 0-23.06 19.7-41.76 44-41.76z" stroke="#000" stroke-opacity="0" stroke-width="2" fill="#286cbc"/><use xlink:href="#q" transform="matrix(1,0,0,1,339,159.9440559065843) translate(16.572383793776282 43.124856533764415)"/><use xlink:href="#r" transform="matrix(1,0,0,1,339,159.9440559065843) translate(121.97095664563889 43.124856533764415)"/><path d="M819 328.7h96c2.76 0 5 2.23 5 5v45.52" stroke="#bed9ff" stroke-width="4" fill="none"/><path d="M920 394.22l-4.64-14.26h9.28z" fill="#bed9ff"/><path d="M920 400.7l-7.4-22.74h14.8zm-1.88-18.74l1.88 5.8 1.88-5.8z" fill="#bed9ff"/><path d="M880 328.7h475c2.76 0 5 2.23 5 5v45.52" stroke="#bed9ff" stroke-width="4" fill="none"/><path d="M1360 394.22l-4.64-14.26h9.28z" fill="#bed9ff"/><path d="M1360 400.7l-7.4-22.74h14.8zm-1.88-18.74l1.88 5.8 1.88-5.8z" fill="#bed9ff"/><path d="M444 238.44l-.34 16.8-.8 13.1-1.16 10.94-1.45 9.85-1.9 9.88-3.25 13.77-6.8 27.35-1.9 9.88-1.46 9.86-1.14 10.95-.73 11.66" stroke="#bed9ff" stroke-width="2" fill="none"/><path d="M445 238.46l-1.12-.02H445zM427.7 383.3l-4.98 14.16-4.3-14.37z" fill="#bed9ff"/><path d="M429.1 382.34l-6.45 18.35-5.58-18.64zm-6.3 11.88l3.5-9.95-6.53-.15z" fill="#bed9ff"/><path d="M386 245.7c0-2.77 2.24-5 5-5h230c2.76 0 5 2.23 5 5v50c0 2.75-2.24 5-5 5H391c-2.76 0-5-2.25-5-5z" stroke="#000" stroke-opacity="0" fill="#fff" fill-opacity="0"/><use xlink:href="#s" transform="matrix(1,0,0,1,391,245.6931951091708) translate(80.46087135643873 29.222100615172174)"/><path d="M897.33 520.7l-.04 1.88-.12 1.84-.2 1.83-.26 1.8-.34 1.8-.42 1.78-.5 1.8-.6 1.8-.66 1.8-.78 1.85-.88 1.87-1 1.9-1.12 1.95-1.27 2-1.44 2.08-1.63 2.15-1.85 2.24-2.12 2.35-2.42 2.47-2.8 2.6-3.22 2.8-3.78 2.98-4.46 3.24-5.3 3.53-6.44 3.88-7.9 4.34-9.92 4.9-12.82 5.7-17.27 6.82-24.9 8.62-42.07 12.6-202.34 54.33-24.9 8.63-17.26 6.8-12.82 5.7-9.93 4.92-7.9 4.33-6.42 3.9-5.32 3.52-4.45 3.23-3.77 3-3.24 2.78-2.8 2.62-2.4 2.47-2.12 2.35-1.86 2.24-1.63 2.15-1.44 2.06-1.3 2-1.1 1.96-1 1.9-.9 1.87-.76 1.83-.05.12" stroke="#000" fill="none"/><path d="M897.83 520.78l-.52-.1h.54zM427.53 746.14l-7.23 13.14-1.88-14.88z"/><path d="M428.3 745.78l-8.3 15.1-2.16-17.1zm-7.7 11.9l6.16-11.18-7.76-1.48z"/><path d="M920 520.7l-.27 13.2-.72 11.52-1.06 10.24-1.37 9.27-1.63 8.56-1.9 8.04-2.15 7.75-2.5 7.66-2.93 7.87-3.63 8.6-5.13 10.88-22.1 43.65-3.63 8.6-2.93 7.88-2.5 7.66-2.16 7.74-1.88 8.06-1.63 8.55-1.37 9.28-1.07 10.23-.5 8.12" stroke="#000" fill="none"/><path d="M920.5 520.7h-.64.64zM861.53 744.95l-5.04 14.13-4.23-14.4z"/><path d="M862.23 744.47l-5.8 16.22-4.84-16.54zm-5.7 13l4.3-12.04-7.9-.23z"/><path d="M944 520.7l.05 2.4.15 2.34.24 2.3.33 2.26.43 2.24.52 2.22.62 2.22.72 2.2.83 2.23.93 2.25 1.06 2.27 1.2 2.3 1.35 2.34 1.52 2.4 1.72 2.47 1.93 2.55 2.2 2.65 2.48 2.76 2.85 2.9 3.26 3.05 3.8 3.25 4.4 3.5 5.18 3.76 6.2 4.1 7.55 4.58 9.38 5.14 12.04 5.96 16.22 7.2 24.15 9.5 55.07 18.9 90.76 30.4 24.14 9.5 16.23 7.2 12.03 5.96 9.38 5.15 7.55 4.56 6.2 4.13 5.2 3.77 4.4 3.48 3.78 3.26 3.26 3.06 2.83 2.9 2.5 2.76 2.18 2.65 1.95 2.56 1.7 2.47 1.54 2.4 1.34 2.34 1.2 2.3 1.07 2.26.95 2.24.83 2.22.6 1.82" stroke="#000" fill="none"/><path d="M943.5 520.76v-.07h.53zM1316.2 759.1l-6.7-13.42 9.16-1.38z"/><path d="M1316.44 760.7l-7.7-15.4 10.52-1.6zm-6.2-14.63l5.72 11.42 2.1-12.6z"/><path d="M620 460.7h143.38" stroke="#bed9ff" fill="none"/><path d="M620 461.2v-1zM778.38 460.7l-14.26 4.63v-9.27z" fill="#bed9ff"/><path d="M780 460.7L763.62 466v-10.65zm-15.38 3.94l12.14-3.95-12.14-3.95z" fill="#bed9ff"/><path d="M340 466.7l-3.13-.07-2.95-.2-2.8-.28-2.68-.4-2.56-.48-2.45-.58-2.36-.67-2.27-.73-2.2-.82-2.13-.9-2.07-.97-2.02-1.05-1.97-1.14-1.92-1.2-1.9-1.33-1.85-1.4-1.83-1.52-1.8-1.62-1.77-1.74-1.76-1.88-1.73-2-1.7-2.16-1.7-2.33-1.67-2.5-1.64-2.72-1.6-2.93-1.6-3.2-1.54-3.46-1.5-3.76-1.43-4.1-1.35-4.5-1.25-4.88-1.14-5.33-.98-5.82-.8-6.32-.57-6.86-.3-7.4v-7.95l.35-8.45.75-8.9 1.17-9.26 1.6-9.5 2.05-9.6 2.45-9.55 2.83-9.36 3.15-9.05 3.42-8.64 3.6-8.12 3.77-7.58 3.86-7.02 3.9-6.44 3.92-5.9 3.9-5.37 3.86-4.87 3.82-4.43 3.76-4 3.27-3.2" stroke="#bed9ff" fill="none"/><path d="M340 467.2h-.06l.06-.53zM332 233.35l-5.87-7.17 13.98-5.46z" fill="#bed9ff"/><path d="M341.36 219.7l-9.3 14.5-6.75-8.24 16.06-6.26zm-14.4 6.7l5 6.1 6.9-10.75z" fill="#bed9ff"/><path d="M480 520.7l.18 8.8.5 8.06.8 7.44 1 6.9 1.23 6.42 1.42 6.03 1.6 5.68 1.73 5.37 1.9 5.1 2.05 4.88 2.2 4.67 2.34 4.5 2.5 4.33 2.67 4.2 2.85 4.08 3.02 3.98 3.22 3.9 3.43 3.82 3.68 3.75 3.96 3.72 4.25 3.67 4.6 3.63 4.98 3.6 5.43 3.6 5.95 3.6 6.54 3.6 7.25 3.6 8.1 3.6 9.16 3.63 10.43 3.62 12.02 3.62 14.1 3.6 16.82 3.58 20.67 3.48 26.43 3.3 36.2 3 58.73 2.34 137.36.43 176.44-1.56 47.26-2.9 32.6-3.4 24.78-3.63 19.8-3.77 16.36-3.82 13.78-3.84 11.83-3.83 10.3-3.82 9.05-3.8 8.04-3.78 7.2-3.76 6.48-3.73 5.88-3.74 5.37-3.73 4.93-3.74 4.53-3.74 4.18-3.78 3.9-3.8 3.6-3.84 3.36-3.9 3.15-3.97 2.93-4.04 2.75-4.15 2.57-4.25 2.4-4.37 2.24-4.52 2.08-4.67 1.93-4.88 1.78-5.1 1.6-5.33 1.46-5.63 1.26-5.96 1.07-6.33.85-6.75.23-2.66" stroke="#bed9ff" fill="none"/><path d="M479.5 520.72v-.03h.64zM1363.9 536.77l-9.25-.42 5.28-14.04z" fill="#bed9ff"/><path d="M1364.57 537.3l-10.63-.48 6.06-16.13zm-9.2-1.42l7.87.36-3.4-12.3z" fill="#bed9ff"/><path d="M575.54 427.22c0-2.76 2.24-5 5-5h230c2.76 0 5 2.24 5 5v50c0 2.76-2.24 5-5 5h-230c-2.76 0-5-2.24-5-5z" stroke="#000" stroke-opacity="0" fill="#fff" fill-opacity="0"/><use xlink:href="#t" transform="matrix(1,0,0,1,580.5395300716551,427.21883424931065) translate(71.13706583126685 29.222100615172174)"/><path d="M244.75 411.43c-2.62-.86-4.06-3.68-3.2-6.3l71.27-218.68c.86-2.63 3.68-4.06 6.3-3.2l47.55 15.5c2.62.84 4.06 3.66 3.2 6.3L298.6 423.7c-.86 2.62-3.68 4.06-6.3 3.2z" stroke="#000" stroke-opacity="0" fill="#fff" fill-opacity="0"/><use xlink:href="#u" transform="matrix(0.3098890512397309,-0.9507727256930225,0.9507727256930225,0.3098890512397309,246.30330888466383,406.67423090322984) translate(82.22007994609382 29.222100615172174)"/><path d="M1160 565.7c0-2.77 2.24-5 5-5h230c2.76 0 5 2.23 5 5v50c0 2.75-2.24 5-5 5h-230c-2.76 0-5-2.25-5-5z" stroke="#000" stroke-opacity="0" fill="#fff" fill-opacity="0"/><use xlink:href="#s" transform="matrix(1,0,0,1,1165,565.6931951091708) translate(80.46087135643873 29.222100615172174)"/><path d="M592.97 617.35c-.7-2.67.88-5.4 3.55-6.12l222.3-59c2.67-.72 5.4.87 6.1 3.54l12.84 48.32c.7 2.66-.88 5.4-3.54 6.1l-222.3 59.03c-2.67.7-5.4-.9-6.12-3.55z" stroke="#000" stroke-opacity="0" fill="#fff" fill-opacity="0"/><use xlink:href="#s" transform="matrix(0.9665183904365388,-0.2565973517945234,0.2565973517945234,0.9665183904365388,597.8029701584546,616.0667126676583) translate(80.46087135643873 29.222100615172174)"/><path d="M977.4 534.22c.88-2.62 3.7-4.05 6.32-3.2l218.53 71.75c2.62.86 4.05 3.7 3.2 6.3l-15.6 47.5c-.86 2.64-3.7 4.07-6.3 3.2L965 588.05c-2.6-.86-4.04-3.7-3.18-6.3z" stroke="#000" stroke-opacity="0" fill="#fff" fill-opacity="0"/><use xlink:href="#s" transform="matrix(0.9501150052874836,0.3118997863538302,-0.3118997863538302,0.9501150052874836,982.1649584662998,535.7824772756761) translate(80.46087135643873 29.222100615172174)"/><g><path d="M790.83 730.37c-2.4-1.4-3.2-4.45-1.8-6.84L905.2 525c1.4-2.37 4.45-3.18 6.84-1.78l43.15 25.25c2.4 1.4 3.2 4.45 1.8 6.84L840.8 753.84c-1.4 2.38-4.45 3.2-6.84 1.8z" stroke="#000" stroke-opacity="0" fill="#fff" fill-opacity="0"/></g><g><use xlink:href="#s" transform="matrix(0.5049538910317403,-0.8631463189586719,0.8631463189586719,0.5049538910317403,793.3516445573829,726.0573495196174) translate(80.46087135643873 29.222100615172174)"/></g><path d="M789.33 196.7H577.1" stroke="#bed9ff" stroke-width="5" fill="none"/><path fill="#bed9ff"/><path d="M576.36 201.33l-14.27-4.64 14.26-4.64z" fill="#bed9ff"/><path d="M578.86 204.77L554 196.7l24.86-8.08zm-8.68-8.08l3.68 1.2v-2.4z" fill="#bed9ff"/><defs><path fill="#fff" d="M240 0l2-218c-23 76-54 145-80 218h-23L58-218 59 0H30v-248h44l77 211c21-75 51-140 76-211h43V0h-30" id="v"/><path fill="#fff" d="M100-194c63 0 86 42 84 106H49c0 40 14 67 53 68 26 1 43-12 49-29l28 8c-11 28-37 45-77 45C44 4 14-33 15-96c1-61 26-98 85-98zm52 81c6-60-76-77-97-28-3 7-6 17-6 28h103" id="w"/><path fill="#fff" d="M30-248c118-7 216 8 213 122C240-48 200 0 122 0H30v-248zM63-27c89 8 146-16 146-99s-60-101-146-95v194" id="x"/><path fill="#fff" d="M185-189c-5-48-123-54-124 2 14 75 158 14 163 119 3 78-121 87-175 55-17-10-28-26-33-46l33-7c5 56 141 63 141-1 0-78-155-14-162-118-5-82 145-84 179-34 5 7 8 16 11 25" id="y"/><path fill="#fff" d="M115-194c55 1 70 41 70 98S169 2 115 4C84 4 66-9 55-30l1 105H24l-1-265h31l2 30c10-21 28-34 59-34zm-8 174c40 0 45-34 45-75s-6-73-45-74c-42 0-51 32-51 76 0 43 10 73 51 73" id="z"/><path fill="#fff" d="M141-36C126-15 110 5 73 4 37 3 15-17 15-53c-1-64 63-63 125-63 3-35-9-54-41-54-24 1-41 7-42 31l-33-3c5-37 33-52 76-52 45 0 72 20 72 64v82c-1 20 7 32 28 27v20c-31 9-61-2-59-35zM48-53c0 20 12 33 32 33 41-3 63-29 60-74-43 2-92-5-92 41" id="A"/><path fill="#fff" d="M96-169c-40 0-48 33-48 73s9 75 48 75c24 0 41-14 43-38l32 2c-6 37-31 61-74 61-59 0-76-41-82-99-10-93 101-131 147-64 4 7 5 14 7 22l-32 3c-4-21-16-35-41-35" id="B"/><g id="a"><use transform="matrix(0.08506745185783907,0,0,0.08506745185783907,0,0)" xlink:href="#v"/><use transform="matrix(0.08506745185783907,0,0,0.08506745185783907,25.43516810549388,0)" xlink:href="#w"/><use transform="matrix(0.08506745185783907,0,0,0.08506745185783907,42.44865847706169,0)" xlink:href="#x"/><use transform="matrix(0.08506745185783907,0,0,0.08506745185783907,64.48112850824201,0)" xlink:href="#y"/><use transform="matrix(0.08506745185783907,0,0,0.08506745185783907,84.89731695412338,0)" xlink:href="#z"/><use transform="matrix(0.08506745185783907,0,0,0.08506745185783907,101.9108073256912,0)" xlink:href="#A"/><use transform="matrix(0.08506745185783907,0,0,0.08506745185783907,118.92429769725901,0)" xlink:href="#B"/><use transform="matrix(0.08506745185783907,0,0,0.08506745185783907,134.23643903167005,0)" xlink:href="#w"/></g><path fill="#fff" d="M140-251c81 0 123 46 123 126C263-53 228-8 163 1c7 30 30 48 69 40v23c-55 16-95-15-103-61C56-3 17-48 17-125c0-80 42-126 123-126zm0 227c63 0 89-41 89-101s-29-99-89-99c-61 0-89 39-89 99S79-25 140-24" id="C"/><path fill="#fff" d="M30 0v-248h33v221h125V0H30" id="D"/><g id="b"><use transform="matrix(0.08506745185783907,0,0,0.08506745185783907,0,0)" xlink:href="#y"/><use transform="matrix(0.08506745185783907,0,0,0.08506745185783907,20.416188445881374,0)" xlink:href="#C"/><use transform="matrix(0.08506745185783907,0,0,0.08506745185783907,44.23507496607631,0)" xlink:href="#D"/></g><path fill="#fff" d="M266 0h-40l-56-210L115 0H75L2-248h35L96-30l15-64 43-154h32l59 218 59-218h35" id="E"/><path fill="#fff" d="M114-163C36-179 61-72 57 0H25l-1-190h30c1 12-1 29 2 39 6-27 23-49 58-41v29" id="F"/><g id="c"><use transform="matrix(0.08506745185783907,0,0,0.08506745185783907,0,0)" xlink:href="#E"/><use transform="matrix(0.08506745185783907,0,0,0.08506745185783907,28.242394016802564,0)" xlink:href="#F"/><use transform="matrix(0.08506745185783907,0,0,0.08506745185783907,38.36542078788541,0)" xlink:href="#A"/><use transform="matrix(0.08506745185783907,0,0,0.08506745185783907,55.378911159453224,0)" xlink:href="#z"/><use transform="matrix(0.08506745185783907,0,0,0.08506745185783907,72.39240153102104,0)" xlink:href="#z"/><use transform="matrix(0.08506745185783907,0,0,0.08506745185783907,89.40589190258883,0)" xlink:href="#w"/><use transform="matrix(0.08506745185783907,0,0,0.08506745185783907,106.41938227415665,0)" xlink:href="#F"/></g><path fill="#fff" d="M24-248c93 1 206-16 204 79-1 75-69 88-152 82V0H24v-248zm52 121c47 0 100 7 100-41 0-47-54-39-100-39v80" id="G"/><path fill="#fff" d="M135-150c-39-12-60 13-60 57V0H25l-1-190h47c2 13-1 29 3 40 6-28 27-53 61-41v41" id="H"/><path fill="#fff" d="M110-194c64 0 96 36 96 99 0 64-35 99-97 99-61 0-95-36-95-99 0-62 34-99 96-99zm-1 164c35 0 45-28 45-65 0-40-10-65-43-65-34 0-45 26-45 65 0 36 10 65 43 65" id="I"/><path fill="#fff" d="M25-224v-37h50v37H25zM75 22c2 45-34 59-81 51V38c22 5 31-5 31-27v-201h50V22" id="J"/><path fill="#fff" d="M185-48c-13 30-37 53-82 52C43 2 14-33 14-96s30-98 90-98c62 0 83 45 84 108H66c0 31 8 55 39 56 18 0 30-7 34-22zm-45-69c5-46-57-63-70-21-2 6-4 13-4 21h74" id="K"/><path fill="#fff" d="M190-63c-7 42-38 67-86 67-59 0-84-38-90-98-12-110 154-137 174-36l-49 2c-2-19-15-32-35-32-30 0-35 28-38 64-6 74 65 87 74 30" id="L"/><path fill="#fff" d="M115-3C79 11 28 4 28-45v-112H4v-33h27l15-45h31v45h36v33H77v99c-1 23 16 31 38 25v30" id="M"/><g id="d"><use transform="matrix(0.11909443260097469,0,0,0.11909443260097469,0,0)" xlink:href="#G"/><use transform="matrix(0.11909443260097469,0,0,0.11909443260097469,28.582663824233926,0)" xlink:href="#H"/><use transform="matrix(0.11909443260097469,0,0,0.11909443260097469,45.25588438837038,0)" xlink:href="#I"/><use transform="matrix(0.11909443260097469,0,0,0.11909443260097469,71.33756512798384,0)" xlink:href="#J"/><use transform="matrix(0.11909443260097469,0,0,0.11909443260097469,83.2470083880813,0)" xlink:href="#K"/><use transform="matrix(0.11909443260097469,0,0,0.11909443260097469,107.06589490827623,0)" xlink:href="#L"/><use transform="matrix(0.11909443260097469,0,0,0.11909443260097469,130.88478142847117,0)" xlink:href="#M"/></g><path fill="#fff" d="M140-251c80 0 125 45 125 126S219 4 139 4C58 4 15-44 15-125s44-126 125-126zm-1 214c52 0 73-35 73-88 0-50-21-86-72-86-52 0-73 35-73 86s22 88 72 88" id="N"/><path fill="#fff" d="M128 0H69L1-190h53L99-40l48-150h52" id="O"/><path fill="#fff" d="M25-224v-37h50v37H25zM25 0v-190h50V0H25" id="P"/><path fill="#fff" d="M231 0h-52l-39-155L100 0H48L-1-190h46L77-45c9-52 24-97 36-145h53l37 145 32-145h46" id="Q"/><g id="e"><use transform="matrix(0.11909443260097469,0,0,0.11909443260097469,0,0)" xlink:href="#N"/><use transform="matrix(0.11909443260097469,0,0,0.11909443260097469,33.346441128272915,0)" xlink:href="#O"/><use transform="matrix(0.11909443260097469,0,0,0.11909443260097469,57.16532764846785,0)" xlink:href="#K"/><use transform="matrix(0.11909443260097469,0,0,0.11909443260097469,80.98421416866279,0)" xlink:href="#H"/><use transform="matrix(0.11909443260097469,0,0,0.11909443260097469,97.65743473279925,0)" xlink:href="#O"/><use transform="matrix(0.11909443260097469,0,0,0.11909443260097469,121.47632125299418,0)" xlink:href="#P"/><use transform="matrix(0.11909443260097469,0,0,0.11909443260097469,133.38576451309166,0)" xlink:href="#K"/><use transform="matrix(0.11909443260097469,0,0,0.11909443260097469,157.2046510332866,0)" xlink:href="#Q"/></g><path fill="#fff" d="M33 0v-248h34V0H33" id="R"/><path fill="#fff" d="M210-169c-67 3-38 105-44 169h-31v-121c0-29-5-50-35-48C34-165 62-65 56 0H25l-1-190h30c1 10-1 24 2 32 10-44 99-50 107 0 11-21 27-35 58-36 85-2 47 119 55 194h-31v-121c0-29-5-49-35-48" id="S"/><path fill="#fff" d="M177-190C167-65 218 103 67 71c-23-6-38-20-44-43l32-5c15 47 100 32 89-28v-30C133-14 115 1 83 1 29 1 15-40 15-95c0-56 16-97 71-98 29-1 48 16 59 35 1-10 0-23 2-32h30zM94-22c36 0 50-32 50-73 0-42-14-75-50-75-39 0-46 34-46 75s6 73 46 73" id="T"/><g id="f"><use transform="matrix(0.08506745185783907,0,0,0.08506745185783907,0,0)" xlink:href="#R"/><use transform="matrix(0.08506745185783907,0,0,0.08506745185783907,8.506745185783906,0)" xlink:href="#S"/><use transform="matrix(0.08506745185783907,0,0,0.08506745185783907,33.941913291277785,0)" xlink:href="#A"/><use transform="matrix(0.08506745185783907,0,0,0.08506745185783907,50.9554036628456,0)" xlink:href="#T"/><use transform="matrix(0.08506745185783907,0,0,0.08506745185783907,67.96889403441341,0)" xlink:href="#w"/></g><g id="g"><use transform="matrix(0.08506745185783907,0,0,0.08506745185783907,0,0)" xlink:href="#y"/><use transform="matrix(0.08506745185783907,0,0,0.08506745185783907,20.416188445881374,0)" xlink:href="#C"/><use transform="matrix(0.08506745185783907,0,0,0.08506745185783907,44.23507496607631,0)" xlink:href="#D"/></g><g id="h"><use transform="matrix(0.08506745185783907,0,0,0.08506745185783907,0,0)" xlink:href="#x"/><use transform="matrix(0.08506745185783907,0,0,0.08506745185783907,22.032470031180317,0)" xlink:href="#x"/><use transform="matrix(0.08506745185783907,0,0,0.08506745185783907,44.064940062360634,0)" xlink:href="#y"/><use transform="matrix(0.08506745185783907,0,0,0.08506745185783907,64.48112850824201,0)" xlink:href="#v"/></g><path fill="#fff" d="M117-194c89-4 53 116 60 194h-32v-121c0-31-8-49-39-48C34-167 62-67 57 0H25l-1-190h30c1 10-1 24 2 32 11-22 29-35 61-36" id="U"/><path fill="#fff" d="M85-194c31 0 48 13 60 33l-1-100h32l1 261h-30c-2-10 0-23-3-31C134-8 116 4 85 4 32 4 16-35 15-94c0-66 23-100 70-100zm9 24c-40 0-46 34-46 75 0 40 6 74 45 74 42 0 51-32 51-76 0-42-9-74-50-73" id="V"/><path fill="#fff" d="M141 0L90-78 38 0H4l68-98-65-92h35l48 74 47-74h35l-64 92 68 98h-35" id="W"/><g id="i"><use transform="matrix(0.08506745185783907,0,0,0.08506745185783907,0,0)" xlink:href="#R"/><use transform="matrix(0.08506745185783907,0,0,0.08506745185783907,8.506745185783906,0)" xlink:href="#U"/><use transform="matrix(0.08506745185783907,0,0,0.08506745185783907,25.520235557351718,0)" xlink:href="#V"/><use transform="matrix(0.08506745185783907,0,0,0.08506745185783907,42.53372592891953,0)" xlink:href="#w"/><use transform="matrix(0.08506745185783907,0,0,0.08506745185783907,59.54721630048735,0)" xlink:href="#W"/></g><path fill="#fff" d="M30-248c87 1 191-15 191 75 0 78-77 80-158 76V0H30v-248zm33 125c57 0 124 11 124-50 0-59-68-47-124-48v98" id="X"/><path fill="#fff" d="M63-220v92h138v28H63V0H30v-248h175v28H63" id="Y"/><g id="j"><use transform="matrix(0.08506745185783907,0,0,0.08506745185783907,0,0)" xlink:href="#X"/><use transform="matrix(0.08506745185783907,0,0,0.08506745185783907,20.416188445881374,0)" xlink:href="#x"/><use transform="matrix(0.08506745185783907,0,0,0.08506745185783907,42.44865847706169,0)" xlink:href="#Y"/></g><g id="k"><use transform="matrix(0.08506745185783907,0,0,0.08506745185783907,0,0)" xlink:href="#X"/><use transform="matrix(0.08506745185783907,0,0,0.08506745185783907,20.416188445881374,0)" xlink:href="#x"/><use transform="matrix(0.08506745185783907,0,0,0.08506745185783907,42.44865847706169,0)" xlink:href="#Y"/></g><path fill="#fff" d="M84 4C-5 8 30-112 23-190h32v120c0 31 7 50 39 49 72-2 45-101 50-169h31l1 190h-30c-1-10 1-25-2-33-11 22-28 36-60 37" id="Z"/><path fill="#fff" d="M179-190L93 31C79 59 56 82 12 73V49c39 6 53-20 64-50L1-190h34L92-34l54-156h33" id="aa"/><g id="l"><use transform="matrix(0.08506745185783907,0,0,0.08506745185783907,0,0)" xlink:href="#C"/><use transform="matrix(0.08506745185783907,0,0,0.08506745185783907,23.818886520194937,0)" xlink:href="#Z"/><use transform="matrix(0.08506745185783907,0,0,0.08506745185783907,40.83237689176275,0)" xlink:href="#w"/><use transform="matrix(0.08506745185783907,0,0,0.08506745185783907,57.84586726333057,0)" xlink:href="#F"/><use transform="matrix(0.08506745185783907,0,0,0.08506745185783907,67.96889403441341,0)" xlink:href="#aa"/></g><path fill="#fff" d="M30 0v-248h187v28H63v79h144v27H63v87h162V0H30" id="ab"/><path fill="#fff" d="M59-47c-2 24 18 29 38 22v24C64 9 27 4 27-40v-127H5v-23h24l9-43h21v43h35v23H59v120" id="ac"/><path fill="#fff" d="M100-194c62-1 85 37 85 99 1 63-27 99-86 99S16-35 15-95c0-66 28-99 85-99zM99-20c44 1 53-31 53-75 0-43-8-75-51-75s-53 32-53 75 10 74 51 75" id="ad"/><g id="m"><use transform="matrix(0.08506745185783907,0,0,0.08506745185783907,0,0)" xlink:href="#ab"/><use transform="matrix(0.08506745185783907,0,0,0.08506745185783907,20.416188445881374,0)" xlink:href="#W"/><use transform="matrix(0.08506745185783907,0,0,0.08506745185783907,35.728329780292405,0)" xlink:href="#w"/><use transform="matrix(0.08506745185783907,0,0,0.08506745185783907,52.74182015186022,0)" xlink:href="#B"/><use transform="matrix(0.08506745185783907,0,0,0.08506745185783907,68.05396148627125,0)" xlink:href="#Z"/><use transform="matrix(0.08506745185783907,0,0,0.08506745185783907,85.06745185783906,0)" xlink:href="#ac"/><use transform="matrix(0.08506745185783907,0,0,0.08506745185783907,93.57419704362297,0)" xlink:href="#ad"/><use transform="matrix(0.08506745185783907,0,0,0.08506745185783907,110.58768741519079,0)" xlink:href="#F"/></g><g id="n"><use transform="matrix(0.08506745185783907,0,0,0.08506745185783907,0,0)" xlink:href="#x"/><use transform="matrix(0.08506745185783907,0,0,0.08506745185783907,22.032470031180317,0)" xlink:href="#A"/><use transform="matrix(0.08506745185783907,0,0,0.08506745185783907,39.04596040274813,0)" xlink:href="#ac"/><use transform="matrix(0.08506745185783907,0,0,0.08506745185783907,47.552705588532035,0)" xlink:href="#A"/></g><path fill="#fff" d="M212-179c-10-28-35-45-73-45-59 0-87 40-87 99 0 60 29 101 89 101 43 0 62-24 78-52l27 14C228-24 195 4 139 4 59 4 22-46 18-125c-6-104 99-153 187-111 19 9 31 26 39 46" id="ae"/><path fill="#fff" d="M24 0v-261h32V0H24" id="af"/><g id="o"><use transform="matrix(0.08506745185783907,0,0,0.08506745185783907,0,0)" xlink:href="#ae"/><use transform="matrix(0.08506745185783907,0,0,0.08506745185783907,22.032470031180317,0)" xlink:href="#ad"/><use transform="matrix(0.08506745185783907,0,0,0.08506745185783907,39.04596040274813,0)" xlink:href="#af"/><use transform="matrix(0.08506745185783907,0,0,0.08506745185783907,45.766289099517415,0)" xlink:href="#af"/><use transform="matrix(0.08506745185783907,0,0,0.08506745185783907,52.4866177962867,0)" xlink:href="#w"/><use transform="matrix(0.08506745185783907,0,0,0.08506745185783907,69.5001081678545,0)" xlink:href="#B"/><use transform="matrix(0.08506745185783907,0,0,0.08506745185783907,84.81224950226554,0)" xlink:href="#ac"/><use transform="matrix(0.08506745185783907,0,0,0.08506745185783907,93.31899468804946,0)" xlink:href="#ad"/><use transform="matrix(0.08506745185783907,0,0,0.08506745185783907,110.33248505961727,0)" xlink:href="#F"/></g><path fill="#fff" d="M233-177c-1 41-23 64-60 70L243 0h-38l-65-103H63V0H30v-248c88 3 205-21 203 71zM63-129c60-2 137 13 137-47 0-61-80-42-137-45v92" id="ag"/><path fill="#fff" d="M24-231v-30h32v30H24zM24 0v-190h32V0H24" id="ah"/><path fill="#fff" d="M135-143c-3-34-86-38-87 0 15 53 115 12 119 90S17 21 10-45l28-5c4 36 97 45 98 0-10-56-113-15-118-90-4-57 82-63 122-42 12 7 21 19 24 35" id="ai"/><g id="p"><use transform="matrix(0.08506745185783907,0,0,0.08506745185783907,0,0)" xlink:href="#ag"/><use transform="matrix(0.08506745185783907,0,0,0.08506745185783907,22.032470031180317,0)" xlink:href="#w"/><use transform="matrix(0.08506745185783907,0,0,0.08506745185783907,39.04596040274813,0)" xlink:href="#T"/><use transform="matrix(0.08506745185783907,0,0,0.08506745185783907,56.05945077431594,0)" xlink:href="#ah"/><use transform="matrix(0.08506745185783907,0,0,0.08506745185783907,62.77977947108523,0)" xlink:href="#ai"/><use transform="matrix(0.08506745185783907,0,0,0.08506745185783907,78.09192080549626,0)" xlink:href="#ac"/><use transform="matrix(0.08506745185783907,0,0,0.08506745185783907,86.59866599128017,0)" xlink:href="#w"/><use transform="matrix(0.08506745185783907,0,0,0.08506745185783907,103.61215636284798,0)" xlink:href="#F"/></g><path fill="#fff" d="M106-169C34-169 62-67 57 0H25v-261h32l-1 103c12-21 28-36 61-36 89 0 53 116 60 194h-32v-121c2-32-8-49-39-48" id="aj"/><g id="q"><use transform="matrix(0.08506745185783907,0,0,0.08506745185783907,0,0)" xlink:href="#y"/><use transform="matrix(0.08506745185783907,0,0,0.08506745185783907,20.416188445881374,0)" xlink:href="#w"/><use transform="matrix(0.08506745185783907,0,0,0.08506745185783907,37.42967881744919,0)" xlink:href="#A"/><use transform="matrix(0.08506745185783907,0,0,0.08506745185783907,54.443169189017,0)" xlink:href="#F"/><use transform="matrix(0.08506745185783907,0,0,0.08506745185783907,64.56619596009985,0)" xlink:href="#B"/><use transform="matrix(0.08506745185783907,0,0,0.08506745185783907,79.87833729451089,0)" xlink:href="#aj"/></g><g id="r"><use transform="matrix(0.08506745185783907,0,0,0.08506745185783907,0,0)" xlink:href="#X"/><use transform="matrix(0.08506745185783907,0,0,0.08506745185783907,20.416188445881374,0)" xlink:href="#A"/><use transform="matrix(0.08506745185783907,0,0,0.08506745185783907,37.42967881744919,0)" xlink:href="#T"/><use transform="matrix(0.08506745185783907,0,0,0.08506745185783907,54.443169189017,0)" xlink:href="#w"/></g><path fill="#fff" d="M145-31C134-9 116 4 85 4 32 4 16-35 15-94c0-59 17-99 70-100 32-1 48 14 60 33 0-11-1-24 2-32h30l-1 268h-32zM93-21c41 0 51-33 51-76s-8-73-50-73c-40 0-46 35-46 75s5 74 45 74" id="ak"/><g id="s"><use transform="matrix(0.05864028632183576,0,0,0.05864028632183576,0,0)" xlink:href="#ak"/><use transform="matrix(0.05864028632183576,0,0,0.05864028632183576,11.728057264367152,0)" xlink:href="#Z"/><use transform="matrix(0.05864028632183576,0,0,0.05864028632183576,23.456114528734304,0)" xlink:href="#w"/><use transform="matrix(0.05864028632183576,0,0,0.05864028632183576,35.184171793101456,0)" xlink:href="#F"/><use transform="matrix(0.05864028632183576,0,0,0.05864028632183576,42.16236586539991,0)" xlink:href="#ah"/><use transform="matrix(0.05864028632183576,0,0,0.05864028632183576,46.794948484824936,0)" xlink:href="#w"/><use transform="matrix(0.05864028632183576,0,0,0.05864028632183576,58.52300574919209,0)" xlink:href="#ai"/></g><path fill="#fff" d="M206 0h-36l-40-164L89 0H53L-1-190h32L70-26l43-164h34l41 164 42-164h31" id="al"/><g id="t"><use transform="matrix(0.05864028632183576,0,0,0.05864028632183576,0,0)" xlink:href="#Y"/><use transform="matrix(0.05864028632183576,0,0,0.05864028632183576,12.842222704482031,0)" xlink:href="#ad"/><use transform="matrix(0.05864028632183576,0,0,0.05864028632183576,24.570279968849185,0)" xlink:href="#F"/><use transform="matrix(0.05864028632183576,0,0,0.05864028632183576,31.548474041147646,0)" xlink:href="#al"/><use transform="matrix(0.05864028632183576,0,0,0.05864028632183576,46.7363081985031,0)" xlink:href="#A"/><use transform="matrix(0.05864028632183576,0,0,0.05864028632183576,58.464365462870255,0)" xlink:href="#F"/><use transform="matrix(0.05864028632183576,0,0,0.05864028632183576,65.44255953516871,0)" xlink:href="#V"/><use transform="matrix(0.05864028632183576,0,0,0.05864028632183576,77.17061679953586,0)" xlink:href="#ai"/></g><g id="u"><use transform="matrix(0.05864028632183576,0,0,0.05864028632183576,0,0)" xlink:href="#F"/><use transform="matrix(0.05864028632183576,0,0,0.05864028632183576,6.9781940722984555,0)" xlink:href="#w"/><use transform="matrix(0.05864028632183576,0,0,0.05864028632183576,18.70625133666561,0)" xlink:href="#ac"/><use transform="matrix(0.05864028632183576,0,0,0.05864028632183576,24.570279968849185,0)" xlink:href="#Z"/><use transform="matrix(0.05864028632183576,0,0,0.05864028632183576,36.29833723321634,0)" xlink:href="#F"/><use transform="matrix(0.05864028632183576,0,0,0.05864028632183576,43.276531305514794,0)" xlink:href="#U"/><use transform="matrix(0.05864028632183576,0,0,0.05864028632183576,55.004588569881946,0)" xlink:href="#ai"/></g></defs></g></svg>