<?xml version="1.0" encoding="UTF-8" standalone="no"?>
<!-- Created with Inkscape (http://www.inkscape.org/) -->

<svg
   xmlns:dc="http://purl.org/dc/elements/1.1/"
   xmlns:cc="http://creativecommons.org/ns#"
   xmlns:rdf="http://www.w3.org/1999/02/22-rdf-syntax-ns#"
   xmlns:svg="http://www.w3.org/2000/svg"
   xmlns="http://www.w3.org/2000/svg"
   xmlns:sodipodi="http://sodipodi.sourceforge.net/DTD/sodipodi-0.dtd"
   xmlns:inkscape="http://www.inkscape.org/namespaces/inkscape"
   id="svg14281"
   version="1.1"
   inkscape:version="0.91 r13725"
   xml:space="preserve"
   width="450.25818"
   height="325.94974"
   viewBox="0 0 450.25818 325.94974"
   sodipodi:docname="distributedDatabaseArchitecture.svg"><metadata
     id="metadata14287"><rdf:RDF><cc:Work
         rdf:about=""><dc:format>image/svg+xml</dc:format><dc:type
           rdf:resource="http://purl.org/dc/dcmitype/StillImage" /><dc:title></dc:title></cc:Work></rdf:RDF></metadata><defs
     id="defs14285" /><sodipodi:namedview
     pagecolor="#ffffff"
     bordercolor="#666666"
     borderopacity="1"
     objecttolerance="10"
     gridtolerance="10"
     guidetolerance="10"
     inkscape:pageopacity="0"
     inkscape:pageshadow="2"
     inkscape:window-width="1366"
     inkscape:window-height="706"
     id="namedview14283"
     showgrid="false"
     inkscape:zoom="0.72403801"
     inkscape:cx="225.12909"
     inkscape:cy="162.97487"
     inkscape:window-x="-8"
     inkscape:window-y="-8"
     inkscape:window-maximized="1"
     inkscape:current-layer="g14291" /><g
     id="g14289"
     inkscape:groupmode="layer"
     inkscape:label="distributedDatabaseArchitecture"
     transform="matrix(1.25,0,0,-1.25,0,325.94974)"><g
       id="g14291"><g
         id="g14293"
         transform="matrix(1,0,0,-1,0,260.7598)"><path
           d="m 239.047,141.855 87.074,0 0,57.691 -87.074,0 0,-57.691 z"
           style="fill:#717171;fill-opacity:1;fill-rule:nonzero;stroke:#000000;stroke-width:0.946504;stroke-linecap:butt;stroke-linejoin:miter;stroke-miterlimit:4;stroke-dasharray:none;stroke-opacity:1"
           id="path14295"
           inkscape:connector-curvature="0" /></g><text
         transform="matrix(1,0,0,-1,243.78319,101.01993)"
         style="font-variant:normal;font-weight:normal;font-size:13.35082626px;font-family:'DejaVu Sans';-inkscape-font-specification:DejaVuSans;writing-mode:lr-tb;fill:#000000;fill-opacity:1;fill-rule:nonzero;stroke:none"
         id="text14297"><tspan
           x="0 7.196095 15.35345 22.683054 30.85376 34.551937"
           y="0"
           sodipodi:role="line"
           id="tspan14299">Local </tspan><tspan
           x="0 7.3296037 15.486959 23.93803 31.267635 39.478394 47.942818 53.216393 61.667465 69.838173"
           y="16.688534"
           sodipodi:role="line"
           id="tspan14301">conceptual</tspan><tspan
           x="0 6.9424295 14.272033 22.723106 30.933865 43.977619"
           y="33.377064"
           sodipodi:role="line"
           id="tspan14303">schema</tspan></text>
<g
         id="g14305"
         transform="matrix(1,0,0,-1,0,260.7598)"><path
           d="m 204.227,235.352 155.563,0 0,24.992 -155.563,0 0,-24.992 z"
           style="fill:#717171;fill-opacity:1;fill-rule:nonzero;stroke:#000000;stroke-width:0.83263898;stroke-linecap:butt;stroke-linejoin:miter;stroke-miterlimit:4;stroke-dasharray:none;stroke-opacity:1"
           id="path14307"
           inkscape:connector-curvature="0" /></g><text
         transform="matrix(1,0,0,-1,209.01884,8.61513)"
         style="font-variant:normal;font-weight:normal;font-size:13.35082626px;font-family:'DejaVu Sans';-inkscape-font-specification:DejaVuSans;writing-mode:lr-tb;fill:#000000;fill-opacity:1;fill-rule:nonzero;stroke:none"
         id="text14309"><tspan
           x="0 7.196095 15.35345 22.683054 30.85376 34.551937 38.784149 42.482327 50.933403 56.166924 64.377686 69.664612 78.115685 86.286392 89.984566 94.216782 101.15921 108.52886 116.97993 125.1907 138.1944"
           y="0"
           sodipodi:role="line"
           id="tspan14311">Local internal schema</tspan></text>
<g
         id="g14313"
         transform="matrix(1,0,0,-1,0,260.7598)"><path
           d="m 68.754,0.34 103.898,0 0,25.141 -103.898,0 0,-25.141 z"
           style="fill:#717171;fill-opacity:1;fill-rule:nonzero;stroke:#000000;stroke-width:0.68250901;stroke-linecap:butt;stroke-linejoin:miter;stroke-miterlimit:4;stroke-dasharray:none;stroke-opacity:1"
           id="path14315"
           inkscape:connector-curvature="0" /></g><text
         transform="matrix(1,0,0,-1,73.621624,243.55222)"
         style="font-variant:normal;font-weight:normal;font-size:13.35082626px;font-family:'DejaVu Sans';-inkscape-font-specification:DejaVuSans;writing-mode:lr-tb;fill:#000000;fill-opacity:1;fill-rule:nonzero;stroke:none"
         id="text14317"><tspan
           x="0 8.4243708 16.314709 21.548233 29.758991 35.045918 43.49699 51.667698 55.365875 59.598087 68.449684 72.147865 80.35862"
           y="0"
           sodipodi:role="line"
           id="tspan14319">External View</tspan></text>
<g
         id="g14321"
         transform="matrix(1,0,0,-1,0,260.7598)"><path
           d="m 211.645,0.34 103.902,0 0,25.141 -103.902,0 0,-25.141 z"
           style="fill:#717171;fill-opacity:1;fill-rule:nonzero;stroke:#000000;stroke-width:0.68250901;stroke-linecap:butt;stroke-linejoin:miter;stroke-miterlimit:4;stroke-dasharray:none;stroke-opacity:1"
           id="path14323"
           inkscape:connector-curvature="0" /></g><text
         transform="matrix(1,0,0,-1,216.51484,243.55222)"
         style="font-variant:normal;font-weight:normal;font-size:13.35082626px;font-family:'DejaVu Sans';-inkscape-font-specification:DejaVuSans;writing-mode:lr-tb;fill:#000000;fill-opacity:1;fill-rule:nonzero;stroke:none"
         id="text14325"><tspan
           x="0 8.4243708 16.314709 21.548233 29.758991 35.045918 43.49699 51.667698 55.365875 59.598087 68.449684 72.147865 80.35862"
           y="0"
           sodipodi:role="line"
           id="tspan14327">External View</tspan></text>
<g
         id="g14329"
         transform="matrix(0.394293,-0.540822,-1,-0.729062,0,260.7598)"><path
           d="m 250.093,-141.945 -5.563,7.904 11.17,-0.002 -5.607,-7.902 z"
           style="fill:#000000;fill-opacity:1;fill-rule:evenodd;stroke:#000000;stroke-width:0.128656;stroke-linecap:butt;stroke-linejoin:miter;stroke-miterlimit:4;stroke-dasharray:none;stroke-opacity:1"
           id="path14331"
           inkscape:connector-curvature="0" /></g><g
         id="g14333"
         transform="matrix(0.394293,-0.540822,-1,-0.729062,0,260.7598)"><path
           d="m 247.52,-134.651 5.139,0.003 0.002,34.712 -5.142,0 0.001,-34.715 z"
           style="fill:#000000;fill-opacity:1;fill-rule:nonzero;stroke:#000000;stroke-width:0.23525;stroke-linecap:butt;stroke-linejoin:miter;stroke-miterlimit:4;stroke-dasharray:none;stroke-opacity:1"
           id="path14335"
           inkscape:connector-curvature="0" /></g><g
         id="g14337"
         transform="matrix(0.394293,-0.540822,-1,-0.729062,0,260.7598)"><path
           d="m 250.163,-92.296 5.558,-7.906 -11.169,0.002 5.611,7.904 z"
           style="fill:#000000;fill-opacity:1;fill-rule:evenodd;stroke:#000000;stroke-width:0.128656;stroke-linecap:butt;stroke-linejoin:miter;stroke-miterlimit:4;stroke-dasharray:none;stroke-opacity:1"
           id="path14339"
           inkscape:connector-curvature="0" /></g><g
         id="g14341"
         transform="matrix(0.455176,0.540822,1,-0.841637,0,260.7598)"><path
           d="m 82.538,88.348 -5.261,7.485 10.574,0 -5.313,-7.485 z"
           style="fill:#000000;fill-opacity:1;fill-rule:evenodd;stroke:#000000;stroke-width:0.121816;stroke-linecap:butt;stroke-linejoin:miter;stroke-miterlimit:4;stroke-dasharray:none;stroke-opacity:1"
           id="path14343"
           inkscape:connector-curvature="0" /></g><g
         id="g14345"
         transform="matrix(0.455176,0.540822,1,-0.841637,0,260.7598)"><path
           d="m 80.107,95.256 4.867,0 0.002,32.866 -4.867,0 -0.002,-32.866 z"
           style="fill:#000000;fill-opacity:1;fill-rule:nonzero;stroke:#000000;stroke-width:0.222743;stroke-linecap:butt;stroke-linejoin:miter;stroke-miterlimit:4;stroke-dasharray:none;stroke-opacity:1"
           id="path14347"
           inkscape:connector-curvature="0" /></g><g
         id="g14349"
         transform="matrix(0.455176,0.540822,1,-0.841637,0,260.7598)"><path
           d="m 82.606,135.357 5.269,-7.484 -10.574,0 5.305,7.484 z"
           style="fill:#000000;fill-opacity:1;fill-rule:evenodd;stroke:#000000;stroke-width:0.121816;stroke-linecap:butt;stroke-linejoin:miter;stroke-miterlimit:4;stroke-dasharray:none;stroke-opacity:1"
           id="path14351"
           inkscape:connector-curvature="0" /></g><g
         id="g14353"
         transform="matrix(1,0,0,-1,0,260.7598)"><path
           d="m 186.328,13.578 c 0,1.469 -1.187,2.656 -2.652,2.656 -1.469,0 -2.656,-1.187 -2.656,-2.656 0,-1.465 1.187,-2.652 2.656,-2.652 1.465,0 2.652,1.187 2.652,2.652 z"
           style="fill:#000000;fill-opacity:1;fill-rule:nonzero;stroke:#000000;stroke-width:0.32663301;stroke-linecap:butt;stroke-linejoin:miter;stroke-miterlimit:4;stroke-dasharray:none;stroke-opacity:1"
           id="path14355"
           inkscape:connector-curvature="0" /></g><g
         id="g14357"
         transform="matrix(1,0,0,-1,0,260.7598)"><path
           d="m 193.75,13.543 c 0,1.465 -1.191,2.652 -2.656,2.652 -1.465,0 -2.656,-1.187 -2.656,-2.652 0,-1.469 1.191,-2.656 2.656,-2.656 1.465,0 2.656,1.187 2.656,2.656 z"
           style="fill:#000000;fill-opacity:1;fill-rule:nonzero;stroke:#000000;stroke-width:0.32663301;stroke-linecap:butt;stroke-linejoin:miter;stroke-miterlimit:4;stroke-dasharray:none;stroke-opacity:1"
           id="path14359"
           inkscape:connector-curvature="0" /></g><g
         id="g14361"
         transform="matrix(1,0,0,-1,0,260.7598)"><path
           d="m 201.129,13.465 c 0,1.465 -1.188,2.652 -2.656,2.652 -1.465,0 -2.653,-1.187 -2.653,-2.652 0,-1.465 1.188,-2.656 2.653,-2.656 1.468,0 2.656,1.191 2.656,2.656 z"
           style="fill:#000000;fill-opacity:1;fill-rule:nonzero;stroke:#000000;stroke-width:0.32663301;stroke-linecap:butt;stroke-linejoin:miter;stroke-miterlimit:4;stroke-dasharray:none;stroke-opacity:1"
           id="path14363"
           inkscape:connector-curvature="0" /></g><g
         id="g14365"
         transform="matrix(1,0,0,-1,0,260.7598)"><path
           d="m 174.781,247.332 c 0,1.465 -1.187,2.652 -2.652,2.652 -1.465,0 -2.656,-1.187 -2.656,-2.652 0,-1.469 1.191,-2.656 2.656,-2.656 1.465,0 2.652,1.187 2.652,2.656 z"
           style="fill:#000000;fill-opacity:1;fill-rule:nonzero;stroke:#000000;stroke-width:0.32663301;stroke-linecap:butt;stroke-linejoin:miter;stroke-miterlimit:4;stroke-dasharray:none;stroke-opacity:1"
           id="path14367"
           inkscape:connector-curvature="0" /></g><g
         id="g14369"
         transform="matrix(1,0,0,-1,0,260.7598)"><path
           d="m 182.203,247.293 c 0,1.465 -1.191,2.652 -2.656,2.652 -1.465,0 -2.656,-1.187 -2.656,-2.652 0,-1.469 1.191,-2.656 2.656,-2.656 1.465,0 2.656,1.187 2.656,2.656 z"
           style="fill:#000000;fill-opacity:1;fill-rule:nonzero;stroke:#000000;stroke-width:0.32663301;stroke-linecap:butt;stroke-linejoin:miter;stroke-miterlimit:4;stroke-dasharray:none;stroke-opacity:1"
           id="path14371"
           inkscape:connector-curvature="0" /></g><g
         id="g14373"
         transform="matrix(1,0,0,-1,0,260.7598)"><path
           d="m 189.582,247.215 c 0,1.465 -1.187,2.656 -2.656,2.656 -1.465,0 -2.653,-1.191 -2.653,-2.656 0,-1.465 1.188,-2.656 2.653,-2.656 1.469,0 2.656,1.191 2.656,2.656 z"
           style="fill:#000000;fill-opacity:1;fill-rule:nonzero;stroke:#000000;stroke-width:0.32663301;stroke-linecap:butt;stroke-linejoin:miter;stroke-miterlimit:4;stroke-dasharray:none;stroke-opacity:1"
           id="path14375"
           inkscape:connector-curvature="0" /></g><g
         id="g14377"
         transform="matrix(1,0,0,-0.8907,0,260.7598)"><path
           d="m 277.379,227.248 -3.754,5.333 7.539,0 -3.785,-5.333 z"
           style="fill:#000000;fill-opacity:1;fill-rule:evenodd;stroke:#000000;stroke-width:0.0868481;stroke-linecap:butt;stroke-linejoin:miter;stroke-miterlimit:4;stroke-dasharray:none;stroke-opacity:1"
           id="path14379"
           inkscape:connector-curvature="0" /></g><g
         id="g14381"
         transform="matrix(1,0,0,-0.8907,0,260.7598)"><path
           d="m 275.645,232.174 3.469,0 0,23.432 -3.469,0 0,-23.432 z"
           style="fill:#000000;fill-opacity:1;fill-rule:nonzero;stroke:#000000;stroke-width:0.158803;stroke-linecap:butt;stroke-linejoin:miter;stroke-miterlimit:4;stroke-dasharray:none;stroke-opacity:1"
           id="path14383"
           inkscape:connector-curvature="0" /></g><g
         id="g14385"
         transform="matrix(1,0,0,-0.8907,0,260.7598)"><path
           d="m 277.426,260.763 3.754,-5.337 -7.539,0 3.785,5.337 z"
           style="fill:#000000;fill-opacity:1;fill-rule:evenodd;stroke:#000000;stroke-width:0.0868481;stroke-linecap:butt;stroke-linejoin:miter;stroke-miterlimit:4;stroke-dasharray:none;stroke-opacity:1"
           id="path14387"
           inkscape:connector-curvature="0" /></g><g
         id="g14389"
         transform="matrix(1,0,0,-1,0,260.7598)"><path
           d="m 35.238,141.422 87.074,0 0,57.691 -87.074,0 0,-57.691 z"
           style="fill:#717171;fill-opacity:1;fill-rule:nonzero;stroke:#000000;stroke-width:0.946504;stroke-linecap:butt;stroke-linejoin:miter;stroke-miterlimit:4;stroke-dasharray:none;stroke-opacity:1"
           id="path14391"
           inkscape:connector-curvature="0" /></g><text
         transform="matrix(1,0,0,-1,39.974488,101.45173)"
         style="font-variant:normal;font-weight:normal;font-size:13.35082626px;font-family:'DejaVu Sans';-inkscape-font-specification:DejaVuSans;writing-mode:lr-tb;fill:#000000;fill-opacity:1;fill-rule:nonzero;stroke:none"
         id="text14393"><tspan
           x="0 7.196095 15.35345 22.683054 30.85376 34.551937"
           y="0"
           sodipodi:role="line"
           id="tspan14395">Local </tspan><tspan
           x="0 7.3296037 15.486959 23.93803 31.267635 39.478394 47.942818 53.216393 61.667465 69.838173"
           y="16.688534"
           sodipodi:role="line"
           id="tspan14397">conceptual</tspan><tspan
           x="0 6.9424295 14.272033 22.723106 30.933865 43.977619"
           y="33.377064"
           sodipodi:role="line"
           id="tspan14399">schema</tspan></text>
<g
         id="g14401"
         transform="matrix(1,0,0,-1,0,260.7598)"><path
           d="m 0.418,234.922 155.563,0 0,24.988 -155.563,0 0,-24.988 z"
           style="fill:#717171;fill-opacity:1;fill-rule:nonzero;stroke:#000000;stroke-width:0.83263898;stroke-linecap:butt;stroke-linejoin:miter;stroke-miterlimit:4;stroke-dasharray:none;stroke-opacity:1"
           id="path14403"
           inkscape:connector-curvature="0" /></g><text
         transform="matrix(1,0,0,-1,5.21013,9.04693)"
         style="font-variant:normal;font-weight:normal;font-size:13.35082626px;font-family:'DejaVu Sans';-inkscape-font-specification:DejaVuSans;writing-mode:lr-tb;fill:#000000;fill-opacity:1;fill-rule:nonzero;stroke:none"
         id="text14405"><tspan
           x="0 7.196095 15.35345 22.683054 30.85376 34.551937 38.784149 42.482327 50.933403 56.166924 64.377686 69.664612 78.115685 86.286392 89.984566 94.216782 101.15921 108.52886 116.97993 125.1907 138.1944"
           y="0"
           sodipodi:role="line"
           id="tspan14407">Local internal schema</tspan></text>
<g
         id="g14409"
         transform="matrix(1,0,0,-0.8907,0,260.7598)"><path
           d="m 73.57,226.762 -3.754,5.337 7.539,0 -3.785,-5.337 z"
           style="fill:#000000;fill-opacity:1;fill-rule:evenodd;stroke:#000000;stroke-width:0.0868481;stroke-linecap:butt;stroke-linejoin:miter;stroke-miterlimit:4;stroke-dasharray:none;stroke-opacity:1"
           id="path14411"
           inkscape:connector-curvature="0" /></g><g
         id="g14413"
         transform="matrix(1,0,0,-0.8907,0,260.7598)"><path
           d="m 71.836,231.687 3.469,0 0,23.432 -3.469,0 0,-23.432 z"
           style="fill:#000000;fill-opacity:1;fill-rule:nonzero;stroke:#000000;stroke-width:0.158803;stroke-linecap:butt;stroke-linejoin:miter;stroke-miterlimit:4;stroke-dasharray:none;stroke-opacity:1"
           id="path14415"
           inkscape:connector-curvature="0" /></g><g
         id="g14417"
         transform="matrix(1,0,0,-0.8907,0,260.7598)"><path
           d="m 73.617,260.276 3.754,-5.332 -7.539,0 3.785,5.332 z"
           style="fill:#000000;fill-opacity:1;fill-rule:evenodd;stroke:#000000;stroke-width:0.0868481;stroke-linecap:butt;stroke-linejoin:miter;stroke-miterlimit:4;stroke-dasharray:none;stroke-opacity:1"
           id="path14419"
           inkscape:connector-curvature="0" /></g><g
         id="g14421"
         transform="matrix(1,0,0,-1,0,260.7598)"><path
           d="m 174.207,175.941 c 0,1.465 -1.187,2.653 -2.656,2.653 -1.465,0 -2.653,-1.188 -2.653,-2.653 0,-1.468 1.188,-2.656 2.653,-2.656 1.469,0 2.656,1.188 2.656,2.656 z"
           style="fill:#000000;fill-opacity:1;fill-rule:nonzero;stroke:#000000;stroke-width:0.32663301;stroke-linecap:butt;stroke-linejoin:miter;stroke-miterlimit:4;stroke-dasharray:none;stroke-opacity:1"
           id="path14423"
           inkscape:connector-curvature="0" /></g><g
         id="g14425"
         transform="matrix(1,0,0,-1,0,260.7598)"><path
           d="m 181.625,175.902 c 0,1.465 -1.187,2.653 -2.652,2.653 -1.469,0 -2.657,-1.188 -2.657,-2.653 0,-1.468 1.188,-2.656 2.657,-2.656 1.465,0 2.652,1.188 2.652,2.656 z"
           style="fill:#000000;fill-opacity:1;fill-rule:nonzero;stroke:#000000;stroke-width:0.32663301;stroke-linecap:butt;stroke-linejoin:miter;stroke-miterlimit:4;stroke-dasharray:none;stroke-opacity:1"
           id="path14427"
           inkscape:connector-curvature="0" /></g><g
         id="g14429"
         transform="matrix(1,0,0,-1,0,260.7598)"><path
           d="m 189.004,175.824 c 0,1.465 -1.188,2.656 -2.652,2.656 -1.465,0 -2.657,-1.191 -2.657,-2.656 0,-1.465 1.192,-2.656 2.657,-2.656 1.464,0 2.652,1.191 2.652,2.656 z"
           style="fill:#000000;fill-opacity:1;fill-rule:nonzero;stroke:#000000;stroke-width:0.32663301;stroke-linecap:butt;stroke-linejoin:miter;stroke-miterlimit:4;stroke-dasharray:none;stroke-opacity:1"
           id="path14431"
           inkscape:connector-curvature="0" /></g><g
         id="g14433"
         transform="matrix(1,0,0,-1,0,260.7598)"><path
           d="m 96.602,70.734 187.152,0 0,24.91 -187.152,0 0,-24.91 z"
           style="fill:#717171;fill-opacity:1;fill-rule:nonzero;stroke:#000000;stroke-width:0.91181701;stroke-linecap:butt;stroke-linejoin:miter;stroke-miterlimit:4;stroke-dasharray:none;stroke-opacity:1"
           id="path14435"
           inkscape:connector-curvature="0" /></g><text
         transform="matrix(1,0,0,-1,101.35717,173.27414)"
         style="font-variant:normal;font-weight:normal;font-size:13.35082626px;font-family:'DejaVu Sans';-inkscape-font-specification:DejaVuSans;writing-mode:lr-tb;fill:#000000;fill-opacity:1;fill-rule:nonzero;stroke:none"
         id="text14437"><tspan
           x="0 10.333539 14.031718 22.189074 30.653496 38.824203 42.522381 46.754593 54.084198 62.24155 70.692627 78.022224 86.232986 94.697411 99.970985 108.42206 116.59277 120.29094 124.52316 131.46558 138.83524 147.28632 155.49707 168.50078"
           y="0"
           sodipodi:role="line"
           id="tspan14439">Global conceptual schema</tspan></text>
<g
         id="g14441"
         transform="matrix(0.455176,0.540822,1,-0.841637,0,260.7598)"><path
           d="m 111.203,190.598 -5.261,7.485 10.573,-0.001 -5.312,-7.484 z"
           style="fill:#000000;fill-opacity:1;fill-rule:evenodd;stroke:#000000;stroke-width:0.121816;stroke-linecap:butt;stroke-linejoin:miter;stroke-miterlimit:4;stroke-dasharray:none;stroke-opacity:1"
           id="path14443"
           inkscape:connector-curvature="0" /></g><g
         id="g14445"
         transform="matrix(0.455176,0.540822,1,-0.841637,0,260.7598)"><path
           d="m 108.771,197.506 4.867,-0.001 -0.002,32.868 -4.863,-10e-4 -0.002,-32.866 z"
           style="fill:#000000;fill-opacity:1;fill-rule:nonzero;stroke:#000000;stroke-width:0.222743;stroke-linecap:butt;stroke-linejoin:miter;stroke-miterlimit:4;stroke-dasharray:none;stroke-opacity:1"
           id="path14447"
           inkscape:connector-curvature="0" /></g><g
         id="g14449"
         transform="matrix(0.455176,0.540822,1,-0.841637,0,260.7598)"><path
           d="m 111.27,237.606 5.265,-7.482 -10.574,0 5.309,7.482 z"
           style="fill:#000000;fill-opacity:1;fill-rule:evenodd;stroke:#000000;stroke-width:0.121816;stroke-linecap:butt;stroke-linejoin:miter;stroke-miterlimit:4;stroke-dasharray:none;stroke-opacity:1"
           id="path14451"
           inkscape:connector-curvature="0" /></g><g
         id="g14453"
         transform="matrix(0.394293,-0.540822,-1,-0.729062,0,260.7598)"><path
           d="m 231.209,-34.875 -5.563,7.904 11.17,-0.002 -5.607,-7.902 z"
           style="fill:#000000;fill-opacity:1;fill-rule:evenodd;stroke:#000000;stroke-width:0.128656;stroke-linecap:butt;stroke-linejoin:miter;stroke-miterlimit:4;stroke-dasharray:none;stroke-opacity:1"
           id="path14455"
           inkscape:connector-curvature="0" /></g><g
         id="g14457"
         transform="matrix(0.394293,-0.540822,-1,-0.729062,0,260.7598)"><path
           d="m 228.64,-27.579 5.138,-0.002 -0.001,34.715 -5.142,0 0.005,-34.713 z"
           style="fill:#000000;fill-opacity:1;fill-rule:nonzero;stroke:#000000;stroke-width:0.23525;stroke-linecap:butt;stroke-linejoin:miter;stroke-miterlimit:4;stroke-dasharray:none;stroke-opacity:1"
           id="path14459"
           inkscape:connector-curvature="0" /></g><g
         id="g14461"
         transform="matrix(0.394293,-0.540822,-1,-0.729062,0,260.7598)"><path
           d="m 231.279,14.774 5.558,-7.906 -11.169,0.002 5.611,7.904 z"
           style="fill:#000000;fill-opacity:1;fill-rule:evenodd;stroke:#000000;stroke-width:0.128656;stroke-linecap:butt;stroke-linejoin:miter;stroke-miterlimit:4;stroke-dasharray:none;stroke-opacity:1"
           id="path14463"
           inkscape:connector-curvature="0" /></g></g></g></svg>