<?xml version="1.0" encoding="UTF-8" standalone="no"?>
<!-- Created with Inkscape (http://www.inkscape.org/) -->

<svg
   xmlns:dc="http://purl.org/dc/elements/1.1/"
   xmlns:cc="http://creativecommons.org/ns#"
   xmlns:rdf="http://www.w3.org/1999/02/22-rdf-syntax-ns#"
   xmlns:svg="http://www.w3.org/2000/svg"
   xmlns="http://www.w3.org/2000/svg"
   xmlns:sodipodi="http://sodipodi.sourceforge.net/DTD/sodipodi-0.dtd"
   xmlns:inkscape="http://www.inkscape.org/namespaces/inkscape"
   width="97.408958"
   height="32.327465"
   viewBox="0 0 97.408958 32.327465"
   id="svg7350"
   version="1.1"
   inkscape:version="0.91 r13725"
   sodipodi:docname="Storage-box.svg">
  <defs
     id="defs7352" />
  <sodipodi:namedview
     id="base"
     pagecolor="#ffffff"
     bordercolor="#666666"
     borderopacity="1.0"
     inkscape:pageopacity="0.0"
     inkscape:pageshadow="2"
     inkscape:zoom="3.959798"
     inkscape:cx="73.952069"
     inkscape:cy="-4.8645585"
     inkscape:document-units="px"
     inkscape:current-layer="layer1"
     showgrid="false"
     units="px"
     inkscape:object-paths="true"
     inkscape:snap-nodes="true"
     fit-margin-top="0"
     fit-margin-left="0"
     fit-margin-right="0"
     fit-margin-bottom="0"
     inkscape:window-width="1366"
     inkscape:window-height="706"
     inkscape:window-x="-8"
     inkscape:window-y="-8"
     inkscape:window-maximized="1" />
  <metadata
     id="metadata7355">
    <rdf:RDF>
      <cc:Work
         rdf:about="">
        <dc:format>image/svg+xml</dc:format>
        <dc:type
           rdf:resource="http://purl.org/dc/dcmitype/StillImage" />
        <dc:title></dc:title>
      </cc:Work>
    </rdf:RDF>
  </metadata>
  <g
     inkscape:label="Ebene 1"
     inkscape:groupmode="layer"
     id="layer1"
     transform="translate(-43.492705,-979.39474)">
    <path
       style="opacity:1;fill:none;fill-opacity:1;stroke:none;stroke-width:1.37100005;stroke-miterlimit:4;stroke-dasharray:none;stroke-opacity:1"
       id="path7898"
       d="m 56.869733,874.75548 c -0.337865,3.07761 -0.94476,6.11254 -1.368576,9.17907 -0.219022,2.53443 -0.717097,5.09287 -0.602446,7.64868 0.07769,1.73182 0.247702,2.1446 0.624893,3.82061 0.7254,2.95776 2.276515,5.4593 4.204272,7.76697 1.781403,1.91621 3.884857,3.46058 6.087258,4.85028 1.903437,1.04761 4.03046,1.15864 6.143863,0.93858 1.001904,-0.2324 2.026249,-0.47318 2.981758,-0.86389 1.022973,-0.41829 2.812617,-1.53757 2.108879,-1.14897 -1.623769,0.89662 -3.232748,1.81977 -4.849122,2.72966 3.967181,-2.72825 7.134186,-6.37098 10.189928,-10.04609 2.963007,-3.6009 5.821838,-7.28445 8.675915,-10.97142 2.36458,-2.98118 4.542743,-6.10135 6.809045,-9.15584 2.100923,-2.81703 4.28955,-5.5627 6.55401,-8.24944 1.9276,-2.28996 4.05545,-4.3979 6.11862,-6.56349 1.2838,-1.23067 2.34837,-2.64667 3.43038,-4.04861 0.60983,-0.71909 1.18225,-1.459 1.7384,-2.21867 0.47432,-0.5772 0.79767,-1.26446 1.33148,-1.78864 7.37807,-5.55924 4.25334,-3.30239 7.6514,-3.91605 0.47137,-0.0851 0.93593,-0.23431 1.40984,-0.32121 1.0132,-0.16498 2.04102,-0.19097 3.06518,-0.20916 1.10202,-0.0996 2.0004,0.36763 2.9231,0.88468 0.80495,0.53954 1.33144,1.36366 1.98294,2.05937 0.53616,0.57862 0.99859,1.20423 1.42397,1.86892 0.40578,0.81601 0.59667,1.72749 0.81224,2.60982 0.24137,1.12804 0.27862,2.28815 0.31636,3.43755 0.0773,1.07616 -0.0128,2.13004 -0.35854,3.15253 -0.53632,1.34843 -0.9492,2.7399 -1.44147,4.10518 -0.8344,1.97582 -1.62922,3.96414 -2.37835,5.97378 -0.46902,1.42036 -1.04361,2.80269 -1.60778,4.18727 -0.45391,1.16401 -1.02655,2.27615 -1.69548,3.33003 -0.48488,0.6337 -0.85441,1.3435 -1.3511,1.96811 -0.43125,0.62252 -0.72088,1.3425 -1.00391,2.04372 -0.41198,1.13951 -1.08075,2.14832 -1.73735,3.15718 -1.02826,1.52298 -1.80915,3.19064 -2.56289,4.86119 -0.63042,1.30982 -1.24929,2.62632 -1.89351,3.92973 -0.70548,1.36947 -1.68496,2.56624 -2.59521,3.80108 -1.30996,1.74258 -2.72525,3.38578 -4.27293,4.9197 -3.22882,2.99524 -6.87653,5.44805 -10.64962,7.69348 -6.521979,4.0718 -13.538124,7.20939 -20.331675,10.77091 -3.361886,1.76247 -4.928785,2.67573 -8.207591,4.52131 0.612424,-0.33333 2.405957,-1.40347 1.837273,-1.00001 -0.988221,0.7011 -2.072085,1.25666 -3.100987,1.89656 -2.665953,1.65805 -5.287761,3.3193 -7.613978,5.43556 -0.157716,0.28265 -0.388785,0.53547 -0.473148,0.84796 -0.232877,0.8626 0.4515,1.64802 0.922394,2.24305 1.738034,2.1962 3.97616,3.80364 6.230994,5.41283 2.432585,1.57088 5.000977,2.99565 7.81104,3.764 1.191792,0.32587 1.752181,0.37565 2.944259,0.55337 3.451066,0.37987 6.916788,0.53888 10.385731,0.63197 5.034145,0.2074 10.047858,-0.31011 15.020628,-1.03738 4.32277,-0.57981 8.62892,-1.25993 12.91694,-2.05642 3.17321,-0.56218 6.36073,-1.0377 9.56329,-1.39587 5.05934,-0.59539 10.15991,-0.7606 15.24907,-0.89212 4.57317,-0.10383 9.1478,-0.0971 13.72168,-0.14238 3.31179,0.005 6.62347,-0.0197 9.93523,-0.0293 1.99166,-0.0129 3.98323,-0.0431 5.97494,-0.0485 1.54207,0.0222 3.0861,-0.0739 4.62175,0.0856 3.19839,0.89055 6.24886,2.24913 9.36235,3.39624 2.67442,1.28774 5.73335,1.84112 8.3923,3.11756 1.1651,0.68915 1.53851,1.6976 1.35017,2.98688 -0.32324,1.08858 -1.02891,2.00037 -1.69093,2.90369 -0.56361,0.78981 -1.08808,1.60923 -1.75542,2.31647 -0.68002,0.65545 -1.48011,1.16429 -2.18417,1.7908 -0.6453,0.48304 -1.28636,0.97209 -1.93346,1.45289 -2.2509,1.29924 -4.5018,2.59848 -6.7527,3.89772 -0.13741,0.0575 -0.5409,0.24759 -0.41224,0.17252 1.99855,-1.16594 4.01321,-2.30407 6.02502,-3.44698 0.13177,-0.0749 -0.2602,0.15594 -0.38452,0.24262 -0.24539,0.17111 -0.57279,0.44507 -0.8033,0.63278 -2.49598,2.04813 -5.37056,3.24241 -8.17273,5.00506 -1.92805,1.2128 3.94449,-2.27909 5.92218,-3.40913 0.13842,-0.0791 -0.26929,0.17069 -0.40394,0.25604 -3.13448,2.84296 -5.16943,3.17554 -8.15539,4.39301 -1.52629,0.62232 0.83224,-0.19404 -0.86265,0.3707 -1.12196,0.36872 -2.24986,0.7673 -3.34631,1.21357 -1.14705,0.3422 -2.29787,0.74188 -3.4818,0.93435 -1.45994,0.14527 -2.89942,0.42132 -4.35632,0.59957 -2.01535,0.38064 -4.02821,0.77898 -6.0533,1.10567 -2.63808,0.32957 -5.27264,0.6848 -7.89699,1.11373 -2.96615,0.56004 -5.94167,1.06858 -8.92336,1.54004 -2.09729,0.38321 -4.23103,0.54284 -6.33122,0.89928 -2.00645,0.20976 -4.00899,0.42602 -6.01019,0.67462 -1.73016,0.27642 -3.49048,0.22936 -5.22394,0.45005 -2.22267,0.15822 -4.42254,0.50615 -6.62334,0.84597 -2.31092,0.29765 -4.58187,0.83618 -6.88475,1.18491 -1.83134,0.47354 -3.70875,0.70197 -5.58965,0.86084 -1.36976,0.0108 -2.71228,0.18841 -4.06809,0.35902 -1.19201,0.15371 -2.39258,0.20926 -3.593098,0.23653 -1.038129,-0.0864 -2.025133,0.11816 -3.039198,0.28979 -1.374105,0.14142 -2.685726,0.63449 -3.991295,1.06297 -0.366529,0.13769 -0.739053,0.26037 -1.099587,0.41307 -1.325425,0.56137 -3.047595,1.55753 -2.577565,1.28041 8.166562,-4.81468 4.828968,-2.8986 2.93609,-1.42446 -0.558971,0.43532 -1.086513,0.90956 -1.629769,1.36433 -2.948754,2.801 -5.512935,5.9901 -7.923628,9.25828 -1.11632,1.71012 -2.272721,3.43789 -3.02456,5.34928 -0.425815,1.0826 -0.50165,1.5323 -0.777886,2.6384 -0.333981,1.6243 -0.285546,3.2201 0.302043,4.7661 0.293147,1.2103 0.99076,2.2043 1.677831,3.215 0.747267,0.9273 1.478899,1.865 2.358477,2.6716 0.696066,0.4665 1.532211,0.587 2.24657,1.0294 0.760614,0.5064 1.527044,0.9724 2.328563,1.4137 0.885773,0.3454 1.78228,0.6889 2.69727,0.9556 0.872933,0.3878 1.72829,0.7863 2.57429,1.2347 1.2351,0.4517 2.438004,1.0024 3.717412,1.3217 0.961105,0.3935 1.972522,0.5742 3.000712,0.6656 1.288248,0.2758 2.571918,0.5685 3.873968,0.7749 1.4918,0.2125 2.96298,0.5281 4.46333,0.6883 1.11009,0.059 2.19601,0.095 3.28781,0.304 1.13714,0.2257 2.2967,0.2679 3.45176,0.3074 1.51088,0.083 3.00075,0.016 4.49826,-0.1582 1.61449,-0.209 3.20904,-0.5256 4.83184,-0.6926 1.67369,-0.3235 3.37257,-0.4747 5.0574,-0.7336 1.65395,-0.3295 3.28828,-0.7309 4.93298,-1.1031 1.15204,-0.334 2.22683,-0.8529 3.39507,-1.132 1.12567,-0.5019 2.28712,-0.9157 3.42626,-1.3899 1.42998,-0.5486 2.83247,-1.1702 4.22287,-1.8139 2.12806,-0.8665 4.26329,-1.7162 6.41074,-2.5348 0.32396,-0.1377 0.65194,-0.2664 0.9719,-0.4131 0.97382,-0.4468 0.71765,-0.3659 1.61628,-0.8712 0.26479,-0.1489 1.06522,-0.5844 0.80212,-0.4326 -6.48098,3.7407 -7.27027,4.2425 -4.89228,2.7642 0.93446,-0.566 1.73204,-1.317 2.3927,-2.1825 0.43024,-0.722 0.54516,-1.5755 0.76769,-2.3771 0.23308,-0.8758 0.27446,-1.7837 0.30641,-2.6846 0.005,-0.9885 0.0644,-1.9809 -0.0207,-2.9668 -0.10541,-1.1135 -0.48315,-2.1556 -0.91753,-3.177 -0.49933,-1.0797 -1.11848,-2.07348 -1.91624,-2.95506 -0.74195,-0.81796 -1.34104,-1.75003 -2.19434,-2.4599 -0.75004,-0.60809 -1.44572,-1.27487 -2.1803,-1.90172 -0.62166,-0.69909 -1.36468,-1.26646 -2.17511,-1.72758 -0.93944,-0.55027 -1.90495,-1.06549 -2.89317,-1.52419 -1.321,-0.71084 -2.68775,-1.34091 -4.08837,-1.8771 -1.59869,-0.41916 -3.13714,-1.02227 -4.71249,-1.51381 -1.60269,-0.377 -3.20067,-0.75955 -4.78955,-1.19326 -1.06265,-0.32886 -2.15537,-0.61283 -3.20176,-0.99371 -1.18939,-0.34601 -2.24488,-1.00424 -3.37003,-1.50224 -1.75694,-0.84752 -3.47634,-1.76246 -5.01661,-2.96664 -1.58215,-1.04924 -2.9941,-2.32352 -4.48793,-3.49224 -3.16917,-2.62747 -6.5123,-5.00729 -10.04157,-7.12248 -3.890036,-2.10308 -7.891504,-4.00884 -11.934873,-5.79879 -2.619029,-1.19531 -5.252184,-2.40105 -7.775987,-3.7914 -1.209401,-0.53225 -2.017722,-1.29992 -2.393862,-2.56233 -0.273841,-1.20607 -0.08821,-2.43403 0.07318,-3.64077 0.08257,-1.62683 0.86194,-3.00747 1.665152,-4.38019 1.457094,-2.17031 3.067243,-4.24763 4.714592,-6.27793 2.162183,-2.6852 4.916833,-4.75638 7.600018,-6.88156 5.646982,-4.51039 11.91009,-8.07883 18.30485,-11.41995 3.71461,-1.94519 7.64846,-3.36826 11.66883,-4.52495 3.64803,-0.97458 7.33671,-1.81539 11.08121,-2.31642 2.64292,-0.31843 5.31011,-0.28114 7.96725,-0.29237 2.45049,-0.002 4.90099,0.002 7.35149,7e-5 2.1247,0.0264 4.24946,0.002 6.37407,-0.0196 1.54777,-0.0131 3.09554,0.003 4.64332,2.7e-4 1.44131,0.005 2.88259,-0.009 4.32386,-0.0164 1.09064,0.0237 2.18793,-0.0897 3.26669,0.0899 0.23719,0.0614 0.48206,0.0984 0.71159,0.18415 0.81855,0.30575 1.59294,0.71876 2.38958,1.07777 1.70783,0.76967 3.36938,1.56801 5.02052,2.45424 3.04311,1.53265 5.83575,3.4804 8.62551,5.42068 1.48903,1.0917 3.13553,1.95643 4.60443,3.07365 0.85297,0.8387 1.46752,1.89047 1.98982,2.95822 0.43384,0.99375 1.13599,1.23473 2.13829,1.35503 2.07124,0.28981 3.94317,-0.0589 5.9503,-0.5524 4.29921,-1.25745 8.32768,-3.23517 12.38682,-5.0929 -1.39497,0.84854 4.90393,-2.68322 3.67873,-2.01098 -1.49501,0.82026 -2.93501,1.7463 -4.47384,2.48106 -0.51939,0.248 0.94404,-0.65953 1.39853,-1.01268 1.10346,-0.8574 1.27393,-1.07639 2.24757,-2.02945 1.94396,-1.93861 3.50409,-4.16972 4.89116,-6.52497 0.97196,-1.83057 1.80816,-3.72529 2.47551,-5.68685 0.41701,-1.46622 0.68555,-2.97275 0.96047,-4.4715 0.22615,-1.24599 0.27528,-2.51183 0.30199,-3.77476 0.0282,-1.03354 -0.0529,-2.06857 0.1073,-3.09321 0.20045,-0.87384 0.2989,-1.76186 0.35364,-2.65508 0.0648,-1.12969 0.0549,-2.26205 0.0528,-3.39312 -0.009,-1.12761 -0.17178,-2.25979 -0.38831,-3.36565 -0.21808,-1.21853 -0.51107,-2.42312 -0.87508,-3.60616 -0.33816,-1.02957 -0.7254,-2.0596 -1.27103,-2.99866 -0.70309,-1.10339 -1.57532,-2.10058 -2.38764,-3.13056 -1.11641,-1.48828 -2.57411,-2.65982 -3.91158,-3.93927 -1.30012,-1.06996 -2.67525,-2.04238 -3.97464,-3.11367 -1.64523,-1.39788 -3.37374,-2.66717 -5.30071,-3.64501 -1.62862,-0.91239 -3.40141,-1.49102 -5.10343,-2.23757 -1.58602,-0.60607 -3.15087,-1.25336 -4.76072,-1.79655 -1.37871,-0.36991 -2.74914,-0.76175 -4.16156,-0.98254 -1.10522,-0.15256 -2.22212,-0.16615 -3.33573,-0.17336 -1.16677,-0.0143 -2.33358,0.002 -3.50037,-0.002 -1.3079,-0.0112 -2.61586,-7.2e-4 -3.92377,0.005 -1.13724,0.009 -2.27445,-6e-4 -3.4117,-1.7e-4 -1.19912,0.0975 -2.3622,-0.10546 -3.54282,-0.27214 -1.42055,-0.11049 -2.67448,-0.81877 -3.80058,-1.64376 -1.76031,-1.43943 -3.02225,-3.34486 -4.35498,-5.16016 -1.69508,-2.18994 -2.94939,-4.65374 -4.11479,-7.15234 -1.04054,-2.52887 -2.2027,-5.00653 -3.24504,-7.53406 -0.92114,-2.25349 -1.8577,-4.49621 -2.94374,-6.67616 -1.63123,-3.58171 -3.70071,-6.92429 -5.75709,-10.27215 -0.79623,-1.23478 -1.56734,-2.48613 -2.38869,-3.70434 -3.52307,-5.22534 -7.36168,-10.23549 -11.11619,-15.29374 -9.73293,-13.11269 -0.5225,-0.74555 -11.34842,-15.26112 -7.27371,-9.16637 -14.57381,-18.3253 -22.19253,-27.21004 -2.4337,-2.83811 -4.739635,-5.36334 -7.229398,-8.12224 -2.074675,-2.18475 -4.109838,-4.40652 -6.276233,-6.50171 -0.937528,-0.90672 -1.812443,-1.74183 -2.939591,-2.39268 -0.811458,-0.27116 -1.334105,-0.009 -1.999264,0.41961 -0.152575,0.0983 -0.623088,0.37247 -0.465483,0.28246 1.958925,-1.1187 3.913064,-2.24576 5.869596,-3.36865 -1.428388,1.06435 -2.591343,2.44926 -3.751909,3.79046 -1.452072,1.78211 -2.983214,3.49657 -4.381637,5.32183 -2.016135,2.37865 -4.040263,4.7441 -5.947809,7.21143 -2.829977,3.33788 -5.47909,6.82127 -8.183388,10.26022 -2.635624,3.17479 -5.187295,6.41165 -7.679039,9.69982 -2.655434,3.38449 -4.746601,7.16271 -6.543647,11.05898 -0.979847,2.22815 -1.691545,4.55305 -2.001136,6.9667 -0.226458,1.78801 -0.09126,3.5712 0.09132,5.35398 0.147232,2.11163 0.662684,4.17224 1.313621,6.17895 1.055981,2.89821 2.141914,5.77946 3.576299,8.51341 1.487498,2.50056 3.303586,4.76684 5.259015,6.91161 1.780724,2.22762 3.931204,4.0631 6.300738,5.62834 2.292073,1.5036 4.738948,2.69357 7.380134,3.42218 1.550142,0.51265 3.154604,0.79065 4.778678,0.91008 1.067548,0.0577 2.137175,0.0435 3.205761,0.0374 1.306898,0.0427 2.594335,-0.20983 3.895166,-0.32125 1.872129,-0.20173 3.717082,-0.55175 5.574887,-0.84979 1.260832,-0.13921 2.467666,-0.54675 3.663322,-0.94687 0.540697,-0.0464 0.960913,-0.38501 1.437858,-0.58639 0.651613,-0.27514 1.331076,-0.49142 1.983926,-0.77465 2.262663,-1.02381 6.224223,-3.25421 -3.587863,2.19904 -0.360991,0.20062 0.705572,-0.43056 1.043516,-0.66796 0.911711,-0.64047 1.282368,-1.00185 2.12882,-1.73738 1.98978,-1.70649 3.58184,-3.78501 5.14557,-5.87036 1.00293,-1.54827 1.99316,-3.1258 2.70032,-4.8345 0.46147,-1.19745 0.54415,-2.47641 0.58664,-3.74483 0.0195,-1.05615 0.004,-2.11255 -0.004,-3.16876 0.051,-0.92728 -0.0294,-1.82319 -0.21348,-2.72905 -0.34386,-1.09082 -0.86845,-2.11989 -1.33867,-3.16162 -0.42002,-1.01535 -0.88192,-2.01385 -1.37591,-2.99513 -0.25197,-0.78236 -0.78061,-1.37339 -1.27067,-2.00813 -1.25714,-1.42528 -2.70138,-2.67294 -4.278155,-3.7296 -1.014206,-0.69025 -2.052033,-1.41338 -3.194098,-1.87855 -0.889469,-0.17294 -1.768802,-0.38221 -2.660843,-0.55363 -1.159565,-0.17317 -2.334132,-0.19795 -3.504294,-0.21761 -1.216907,-0.009 -2.433767,-0.002 -3.65068,-0.0102 -1.406306,-0.0507 -2.789802,-0.005 -4.181731,0.18169 -1.205633,0.39513 -2.468327,0.54211 -3.69579,0.83607 -1.230133,0.14661 -2.363824,0.57642 -3.51112,1.01293 -1.006846,0.34843 -1.950116,0.84882 -2.973051,1.16967 -2.349841,1.13304 -5.354433,2.95207 5.152492,-3.00774 0.118736,-0.0673 -0.233504,0.14147 -0.350175,0.21233 -0.503145,0.30562 -0.260133,0.15024 -0.771542,0.4978 -1.230913,0.89449 -2.421068,1.78671 -3.447001,2.91427 -1.179739,1.52516 -2.186567,3.18019 -3.086962,4.88324 -0.567812,1.11049 -1.137354,2.21792 -1.743673,3.30817 -0.607395,0.93394 -0.959118,1.93127 -1.138256,3.02316 -0.250101,1.19862 -0.443163,2.40314 -0.55037,3.62291 -0.07942,1.05089 -0.08513,2.10527 -0.08933,3.15855 -0.0012,1.00966 0.0017,2.01932 0.0031,3.02898 -0.06533,1.17792 0.03994,2.33843 0.190162,3.50482 0.13726,1.38284 0.627204,2.66751 1.08307,3.96525 0.515,1.43024 1.255165,2.75836 2.091078,4.0226 0.921004,1.18031 2.061235,2.15867 3.26453,3.03856 1.456357,1.15159 2.963329,2.23439 4.476131,3.30973 1.365126,0.92054 2.881004,1.53496 4.356457,2.23731 0.914733,0.40826 1.879763,0.63407 2.767876,1.10496 1.187848,0.76824 2.27698,1.6897 3.429021,2.5182 1.179234,0.82762 1.895779,1.92835 2.447084,3.22942 0.801945,1.71562 1.168388,3.59275 1.430691,5.45641 0.158519,1.25954 0.296196,2.5226 0.01438,3.7709 -0.313701,1.01461 -1.025679,1.79938 -1.723312,2.56981 -0.789412,0.94218 -1.733781,1.69876 -2.718803,2.42022 -0.747129,0.51608 -1.545217,0.95329 -2.258708,1.51669 -2.718439,1.7522 -5.302217,4.15282 -8.54615,4.64551 -0.964948,0.27902 -1.922879,0.54487 -2.867123,0.89398 -1.246868,0.39335 -2.526172,0.68317 -3.813165,0.91151 -1.254261,0.11211 -2.463749,0.45568 -3.705595,0.64672 -0.68889,0.15661 -1.413246,0.053 -2.105244,0.15155 -0.286167,0.0408 -0.558027,0.1511 -0.837645,0.22437 -0.892819,0.21493 -1.813267,0.25067 -2.727036,0.27965 -1.00014,0.0221 -2.000623,0.0181 -3.000939,0.0169 -1.011141,-0.002 -2.022283,-0.003 -3.033425,-0.003 -7.58e-4,0 -1.00976,-4.2e-4 -1.010568,-3.3e-4 -0.430786,0.0489 -0.697333,0.30415 -1.051941,0.52028 2.035598,-1.16712 4.071196,-2.33424 6.106794,-3.50137 -0.587855,0.43141 -0.794489,1.18312 -1.17462,1.78375 -0.33954,0.66731 -0.98733,1.04696 -1.531407,1.52431 -0.551402,0.63564 -0.588164,1.49496 -0.642126,2.29599 -0.09658,0.91747 -0.0085,1.80233 0.175208,2.69883 0.224978,0.71895 0.686708,1.30511 0.960542,2.0051 0.432856,0.69726 0.56011,1.50015 0.791906,2.2697 0.318272,0.84278 0.443346,1.72967 0.519291,2.62166 0.0956,1.02356 -0.149232,2.03382 -0.28204,3.04342 -0.07562,0.95429 -0.140978,1.89597 -0.346431,2.83223 -0.215782,0.91093 -0.262541,1.84641 -0.308825,2.77756 -0.08768,1.04727 -0.0096,2.06648 0.184503,3.09379 0.157172,0.78051 0.352774,1.6043 0.772169,2.28897 0.520083,0.61176 1.181484,0.9744 1.906748,1.29152 1.012936,0.28123 2.043334,0.51163 3.083336,0.67819 1.444015,0.19542 2.902577,0.22315 4.357263,0.24831 1.825802,0.0173 3.651652,0.0298 5.477555,0.0328 2.519421,0.12421 4.940531,-0.64952 7.379611,-1.1592 3.124557,-0.62169 6.095644,-1.81301 9.041052,-2.99678 0.540302,-0.1955 1.082604,-0.38556 1.620906,-0.5865 1.62017,-0.60479 1.518773,-0.54722 3.066683,-1.36119 0.500146,-0.263 1.973701,-1.10129 1.485987,-0.81589 -6.086146,3.56143 -5.801711,3.41723 -3.084669,1.65141 2.921879,-1.97851 5.71005,-4.13622 8.380787,-6.43993 2.89983,-2.61773 5.34423,-5.67516 7.71565,-8.76454 2.55389,-3.24226 4.99242,-6.5723 7.51034,-9.84167 2.22777,-2.77568 4.26461,-5.6984 6.55309,-8.42484 1.50561,-1.61682 3.17998,-3.09562 4.94078,-4.43154 18.82199,-10.83667 0.65126,-0.43274 1.00046,-0.60629 2.35251,-1.16919 4.55652,-2.61695 6.86438,-3.87198 0.15923,-0.0866 0.35171,-0.089 0.52384,-0.14578 0.29508,-0.0973 0.77682,-0.30942 1.05447,-0.42727 1.69105,-0.94207 3.59148,-1.21359 5.44185,-1.66111 1.77832,-0.27291 3.5465,-0.57535 5.31757,-0.89287 1.1411,-0.20621 2.29931,-0.26074 3.45603,-0.28488 0.20947,0.0924 0.44541,0.13974 0.6284,0.27735 0.7079,0.53234 1.13432,1.29589 1.55784,2.05187 1.10475,1.97195 1.87117,4.08453 2.66425,6.19323 1.37679,4.31319 2.58651,8.69205 3.52459,13.12353 0.0769,0.41566 0.15379,0.83132 0.23068,1.24699 0,0 -6.39456,3.38147 -6.39456,3.38147 l 0,0 c -0.0512,-0.42147 -0.10244,-0.84294 -0.15367,-1.26441 -0.68642,-4.45728 -1.71494,-8.88034 -3.23002,-13.13117 -0.76745,-1.90033 -0.97724,-2.57042 -1.91742,-4.34209 -0.52911,-0.99705 -1.27492,-2.57252 -2.40759,-3.07935 -0.15554,-0.0696 -0.33778,-0.0453 -0.50667,-0.0679 -1.12157,0.0432 -2.2411,0.13242 -3.34635,0.33702 -1.74788,0.30215 -3.5109,0.50998 -5.24482,0.88666 -1.88163,0.41557 -3.72322,0.90824 -5.44232,1.80993 -0.19493,0.0762 -0.38987,0.15244 -0.58481,0.22866 -0.17057,0.0607 -0.34294,0.11664 -0.51171,0.18222 -0.16076,0.0625 -0.62466,0.28998 -0.47643,0.20181 1.95003,-1.15996 7.87178,-4.51644 5.88565,-3.41942 -2.13409,1.17875 -14.67053,8.52842 -1.07248,0.57301 -1.90186,1.21695 -3.5699,2.81365 -5.2139,4.34693 -2.3789,2.67811 -4.41236,5.62973 -6.64805,8.42534 -2.56119,3.2659 -5.01889,6.61155 -7.59147,9.86915 -2.33233,3.08473 -4.68871,6.17509 -7.51264,8.83472 -2.66689,2.35075 -5.48262,4.51334 -8.400447,6.54481 -4.753397,3.28454 -9.832847,6.18178 -15.291338,8.10116 -2.984431,1.16825 -5.988837,2.33626 -9.151419,2.93034 -2.496621,0.54188 -4.972643,1.27103 -7.558187,1.10346 -1.852063,0.006 -3.704074,0.0314 -5.556105,0.006 -1.482924,-0.0324 -2.967291,-0.0995 -4.435402,-0.32572 -1.096785,-0.19243 -2.217344,-0.37239 -3.246422,-0.81312 -0.830954,-0.41748 -1.586775,-0.89369 -2.144721,-1.66015 -0.456791,-0.76839 -0.737168,-1.64777 -0.893619,-2.52566 -0.200796,-1.07896 -0.322264,-2.14374 -0.23697,-3.24546 0.0064,-0.96557 0.0402,-1.93561 0.218789,-2.88711 0.198406,-0.92551 0.410106,-1.82181 0.395581,-2.77948 0.108578,-0.96974 0.356752,-1.93309 0.339595,-2.90703 -0.05819,-0.83749 -0.150707,-1.6742 -0.455678,-2.46401 -0.243275,-0.75072 -0.331956,-1.54874 -0.772885,-2.22928 -0.272319,-0.7406 -0.797071,-1.34623 -1.00879,-2.11537 -0.197488,-0.95458 -0.346886,-1.89109 -0.249784,-2.87218 0.02966,-0.91408 0.0508,-1.85427 0.413914,-2.70888 0.386332,-0.65047 1.019444,-0.95167 1.574882,-1.43033 0.383363,-0.66975 0.807166,-1.29981 1.065624,-2.03693 4.821054,-2.84772 5.003055,-4.23094 8.919981,-4.16674 1.011074,8.7e-4 2.022148,0.003 3.033223,0.003 0.995083,-0.001 1.990821,1.4e-4 2.984932,-0.0498 0.897661,-0.0588 1.789592,-0.16386 2.663179,-0.38753 0.97144,-0.17277 1.968543,-0.12889 2.938582,-0.32656 1.218135,-0.22202 2.430876,-0.46591 3.65822,-0.63422 1.275068,-0.26809 2.546915,-0.57783 3.774425,-1.01882 0.9729,-0.32575 1.959482,-0.60282 2.952628,-0.85983 0.252355,-0.083 0.970157,-0.42777 0.741013,-0.29336 -10.712268,6.28362 -7.351045,4.25376 -5.070906,2.92648 0.758446,-0.51925 1.448717,-1.13049 2.27317,-1.55805 1.034202,-0.63127 2.013155,-1.3477 2.810878,-2.27037 0.6626,-0.69869 1.384442,-1.39135 1.79971,-2.27301 0.567586,-1.07748 0.306935,-2.35074 0.246382,-3.51538 -0.200162,-1.80364 -0.510254,-3.6216 -1.353763,-5.25045 -0.546499,-1.15028 -1.177486,-2.15792 -2.250871,-2.89778 -1.119794,-0.8166 -2.183309,-1.74681 -3.429432,-2.36469 -0.898943,-0.39638 -1.843017,-0.67774 -2.714369,-1.13638 -1.491632,-0.72765 -2.993676,-1.43736 -4.367669,-2.38037 -1.513578,-1.0867 -3.016622,-2.18658 -4.503124,-3.31005 -1.257074,-0.95361 -2.496032,-1.94283 -3.402747,-3.25459 -0.860633,-1.31582 -1.658173,-2.68162 -2.215016,-4.15736 -0.477631,-1.34271 -0.947237,-2.68248 -1.159537,-4.10032 -0.157632,-1.18836 -0.344805,-2.36645 -0.27033,-3.57084 -0.0012,-1.01099 -0.0037,-2.02197 -0.0031,-3.03295 0.0033,-1.07387 0.0075,-2.14869 0.08043,-3.22059 0.0979,-1.22991 0.244915,-2.45945 0.531953,-3.66122 0.139294,-1.15252 0.335537,-2.27841 1.016198,-3.25278 0.576095,-1.12182 1.274459,-2.17613 1.788592,-3.33102 0.950166,-1.73358 1.987789,-3.41028 3.105042,-5.04273 0.648648,-0.89584 1.307899,-1.609 2.215994,-2.24666 0.187522,-0.13168 0.397502,-0.23043 0.579928,-0.36908 0.161005,-0.12237 0.297554,-0.27395 0.446331,-0.41093 0.350028,-0.28602 0.690317,-0.54671 1.082806,-0.77218 2.470218,-1.41905 4.926778,-3.23212 7.665449,-4.24742 0.989397,-0.38747 1.949252,-0.84835 2.960619,-1.17885 1.15789,-0.42633 2.353053,-0.68674 3.563546,-0.91858 1.243884,-0.24481 2.476486,-0.53755 3.722106,-0.76985 1.408637,-0.15548 2.822333,-0.0998 4.237632,-0.11234 1.223151,-0.0109 2.446376,-0.0123 3.66933,0.0175 1.20875,0.0323 2.421459,0.0787 3.612814,0.30418 0.928843,0.20066 1.888713,0.3201 2.767803,0.69267 1.11214,0.58055 2.15028,1.30203 3.14361,2.06538 1.58918,1.16406 3.0974,2.4424 4.49532,3.83134 0.5681,0.65084 1.10046,1.31024 1.37221,2.14762 0.47931,0.99993 0.91141,2.02186 1.32355,3.05146 0.49564,1.08941 1.08645,2.14139 1.48593,3.27079 0.19477,0.95323 0.33688,1.88883 0.26126,2.86794 0.005,1.06783 0.0164,2.13582 -0.003,3.20357 -0.0402,1.34147 -0.0998,2.70429 -0.51602,3.99095 -0.67097,1.81231 -1.74972,3.40485 -2.72692,5.06343 -1.58676,2.11322 -3.16373,4.25335 -5.14437,6.02419 -0.62101,0.57258 -1.37589,1.29436 -2.04772,1.81452 -3.02537,2.34233 -6.501102,4.09322 -9.978947,5.67351 -1.158945,0.48541 -2.309445,1.00308 -3.517378,1.3553 -1.189981,0.38288 -2.415796,0.64384 -3.656517,0.79813 -1.869519,0.31396 -3.743732,0.58469 -5.623962,0.82682 -1.330013,0.14682 -2.654386,0.36407 -3.997551,0.30887 -1.074685,-9.7e-4 -2.151729,-0.004 -3.221658,-0.11816 -1.618918,-0.20041 -3.209116,-0.56496 -4.75041,-1.10516 -2.629605,-0.87002 -5.092265,-2.12449 -7.401944,-3.65601 -2.42808,-1.58803 -4.601412,-3.51282 -6.453583,-5.75393 -1.944666,-2.22473 -3.797189,-4.52645 -5.236682,-7.12096 -1.505097,-2.7429 -2.619804,-5.64587 -3.764275,-8.554 -0.667803,-2.04148 -1.336483,-4.11751 -1.464854,-6.27595 -0.177867,-1.82754 -0.381168,-3.65775 -0.16962,-5.49424 0.285325,-2.54605 1.137477,-4.95342 2.169161,-7.29164 1.774555,-3.94948 3.926378,-7.75109 6.529225,-11.21687 2.45208,-3.33772 5.016514,-6.58193 7.705805,-9.73279 2.691406,-3.38034 5.250089,-6.86222 8.022792,-10.17732 1.85059,-2.46462 3.841655,-4.80967 5.836575,-7.158 1.363499,-1.85269 2.899666,-3.5591 4.336993,-5.35211 1.138364,-1.35298 2.292114,-2.6899 3.547878,-3.93731 2.276015,-1.32988 4.546228,-2.66975 6.828046,-3.98966 0.954342,-0.55204 1.907873,-0.55545 2.862718,0.0124 1.027109,0.80937 1.862929,1.72766 2.721032,2.71801 1.951212,2.25192 3.792892,4.59511 5.690316,6.89176 3.71018,4.68252 7.43852,9.34958 11.07407,14.09074 5.65392,7.37337 11.2118,14.82242 17.0923,22.01975 8.93519,11.02463 18.05732,21.91902 26.46162,33.35888 2.30681,3.22451 4.73758,6.39044 6.31887,10.05369 1.05746,2.21059 2.12573,4.41578 2.98038,6.71532 0.99201,2.53489 2.12374,5.01539 3.17399,7.52655 1.15779,2.44264 2.41442,4.85871 4.051,7.02048 1.31956,1.72951 2.62124,3.52089 4.33952,4.88183 1.13997,0.69284 2.32979,1.2338 3.68015,1.32366 1.15895,0.16177 2.31528,0.22827 3.48638,0.18539 1.13747,4.6e-4 2.27489,-0.009 3.41235,-6.3e-4 1.30607,0.005 2.61224,0.0135 3.91826,-0.002 1.176,-0.01 2.35207,-0.005 3.5281,-0.002 1.12977,0.0275 2.26193,0.0814 3.37514,0.29139 1.41571,0.28139 2.80936,0.66682 4.18223,1.11132 1.61337,0.58114 3.21235,1.19567 4.80518,1.83083 1.70863,0.72797 3.42955,1.42947 5.05536,2.33552 1.94014,1.05252 3.73198,2.3256 5.42658,3.73994 1.32501,1.07795 2.77259,2.00238 4.04499,3.14335 1.33486,1.31813 2.73846,2.57561 3.92825,4.03066 0.86759,1.03945 1.84154,2.0248 2.54047,3.18427 0.54896,0.99666 0.98421,2.06124 1.32963,3.14455 0.38399,1.2009 0.65286,2.43691 0.90769,3.6706 0.25433,1.14201 0.41907,2.33048 0.47017,3.49643 -0.003,1.13904 -0.009,2.27807 -0.0189,3.41708 -0.0355,0.91996 -0.0861,1.84396 -0.29581,2.74384 -0.23157,0.992 -0.20208,1.98225 -0.20043,2.99983 -0.0316,1.29865 -0.0717,2.60327 -0.2738,3.88846 -0.27008,1.54455 -0.59971,3.08165 -0.99236,4.59919 -0.63476,2.0322 -1.49859,3.96556 -2.47357,5.8574 -1.39799,2.40337 -2.92366,4.71647 -4.87485,6.71674 -4.19565,4.32516 -9.6316,6.90338 -14.93259,9.64998 -4.1249,1.88813 -8.24595,3.83778 -12.61705,5.10114 -2.09685,0.50206 -4.18937,0.8223 -6.34327,0.47022 -1.18112,-0.25988 -2.01834,-0.80471 -2.51271,-1.95247 -0.45889,-0.97528 -1.04688,-1.8993 -1.81537,-2.6619 -1.4206,-1.12378 -2.96439,-2.08098 -4.42158,-3.15565 -2.69749,-1.97933 -5.40663,-3.95053 -8.42076,-5.43452 -2.6312,-1.33322 -5.36942,-2.72916 -8.28628,-3.27585 -1.07054,-0.0461 -2.14249,-0.0163 -3.21379,-0.0309 -1.4263,-0.008 -2.85261,-0.0211 -4.27894,-0.0162 -1.54804,-0.002 -3.09608,0.0137 -4.64413,0 -2.1019,-0.0238 -4.2039,-0.05 -6.30597,-0.0317 -2.4334,-0.0133 -4.86677,-0.0314 -7.30022,-0.0316 -2.63248,0.01 -5.27109,0.0354 -7.88844,0.35055 -3.68624,0.50045 -7.32805,1.26523 -10.89907,2.31501 -3.94093,1.19461 -7.80897,2.61122 -11.46068,4.53565 -0.75778,0.40141 -2.97653,1.69503 -2.27334,1.20424 1.16255,-0.8114 2.41582,-1.48648 3.65764,-2.17041 0.70177,-0.3865 -1.36683,0.83676 -2.036,1.27729 -1.98354,1.3058 -3.83414,2.78445 -5.753077,4.17998 -2.62455,2.08025 -5.344058,4.08473 -7.49674,6.67854 -1.664596,1.96036 -3.190185,4.04918 -4.68678,6.13797 -0.750307,1.27241 -1.571932,2.56587 -1.692875,4.07456 -0.161084,1.11426 -0.362283,2.22664 -0.158464,3.35134 0.245474,1.08205 1.019121,1.62623 1.976368,2.13298 2.419593,1.45135 4.964651,2.68714 7.517882,3.88287 4.000248,1.9068 8.017116,3.78856 11.909716,5.90971 1.02979,0.62702 2.88478,1.74092 3.88024,2.41033 2.18498,1.46933 4.20563,3.16852 6.37803,4.65506 1.57123,1.11632 3.09953,2.28768 4.66954,3.40504 1.47417,1.1966 3.12064,2.10642 4.87576,2.8295 1.12958,0.4874 2.24055,1.02963 3.42071,1.3881 1.04803,0.31608 2.06352,0.72276 3.12188,1.00343 1.58122,0.45068 3.19298,0.77603 4.77102,1.23621 1.58877,0.50818 3.17065,1.03671 4.7592,1.54558 1.41264,0.5789 2.80889,1.20446 4.17716,1.88162 0.99503,0.49684 1.99026,0.99805 2.94193,1.57487 0.82107,0.51991 1.59132,1.104 2.25223,1.82191 0.73841,0.62547 1.41267,1.32279 2.17342,1.92259 0.83073,0.77252 1.46962,1.70009 2.22434,2.54326 0.84145,0.94763 1.47502,2.0279 2.02288,3.16868 0.47475,1.07646 0.92307,2.1682 1.05149,3.348 0.15252,1.0125 0.0626,2.0403 0.0756,3.062 -0.018,0.9438 -0.0365,1.8937 -0.21571,2.8237 -0.20158,0.8729 -0.45053,1.7296 -0.67957,2.5935 -0.53801,1.0275 -1.42625,1.8386 -2.34426,2.5302 -3.59623,2.1831 -7.16358,4.5296 -11.08614,6.0946 -2.14963,0.8272 -4.2948,1.6689 -6.4051,2.5927 -1.41922,0.655 -2.84978,1.2854 -4.31266,1.8378 -1.17024,0.4554 -2.31175,0.9952 -3.51642,1.3528 -1.12744,0.3533 -2.21395,0.8363 -3.3764,1.0762 -1.634,0.3745 -3.27252,0.725 -4.92187,1.0262 -1.70042,0.2511 -3.407,0.4534 -5.10332,0.7314 -1.62107,0.1908 -3.2182,0.5279 -4.84117,0.7026 -1.511,0.1676 -3.02569,0.089 -4.5433,0.062 -1.20233,-0.028 -2.39866,-0.09 -3.57805,-0.3471 -1.07427,-0.1655 -2.16461,-0.1352 -3.24067,-0.2952 -1.48507,-0.2142 -2.95092,-0.5374 -4.437983,-0.7397 -1.310638,-0.2206 -2.613158,-0.4863 -3.925509,-0.696 -1.048007,-0.1479 -2.061704,-0.4164 -3.058734,-0.7728 -1.282631,-0.4106 -2.514595,-0.9679 -3.770894,-1.4498 -0.843631,-0.3933 -1.701329,-0.7534 -2.560515,-1.1104 -0.929762,-0.3283 -1.875409,-0.6329 -2.755608,-1.0801 -0.813473,-0.43 -1.563314,-0.9517 -2.364851,-1.4012 -0.790575,-0.3792 -1.675915,-0.5847 -2.323839,-1.2122 -0.864594,-0.8813 -1.629484,-1.8453 -2.382519,-2.8224 -0.748442,-1.0434 -1.485106,-2.0968 -1.806326,-3.3624 -0.604701,-1.7117 -0.68221,-3.4608 -0.314771,-5.2478 0.240659,-0.985 0.413753,-1.7972 0.756413,-2.7594 0.710108,-1.994 1.919823,-3.7567 3.041363,-5.53379 2.427101,-3.31712 5.061418,-6.50405 7.940007,-9.43919 0.591749,-0.52105 2.419879,-2.18017 3.129404,-2.61671 3.669994,-2.25798 7.419649,-4.65478 11.510097,-6.13404 1.360292,-0.45445 2.726705,-0.88909 4.159305,-1.04864 1.02756,-0.17054 2.05317,-0.21738 3.09492,-0.20331 1.17567,-0.0392 2.35018,-0.11318 3.51679,-0.27005 1.35118,-0.17102 2.70162,-0.26622 4.06271,-0.31896 1.84645,-0.16366 3.66759,-0.46856 5.48196,-0.8472 2.28697,-0.38886 4.5587,-0.87097 6.86169,-1.16233 2.24054,-0.34746 4.4824,-0.68279 6.74126,-0.88871 1.72812,-0.1413 3.46569,-0.18174 5.18337,-0.44186 1.99727,-0.2653 4.01105,-0.36916 6.00186,-0.68773 2.08708,-0.27267 4.17377,-0.53944 6.25638,-0.84594 2.97317,-0.44075 5.93626,-0.9515 8.88661,-1.52531 2.63978,-0.45462 5.30446,-0.73296 7.94941,-1.15772 2.05862,-0.38031 4.11356,-0.78049 6.17247,-1.15423 1.44901,-0.19236 2.89455,-0.42207 4.3358,-0.66194 1.14798,-0.30642 2.3074,-0.58821 3.41413,-1.02617 1.12895,-0.40387 2.23891,-0.85577 3.37521,-1.23838 2.65214,-1.16219 7.5868,-3.29597 -3.78867,2.50535 2.68955,-1.47896 0.72167,-0.39206 7.20373,-4.19513 1.95028,-1.14425 -3.90005,2.28941 -5.85772,3.42096 -0.32923,0.1903 0.62254,-0.43753 0.92096,-0.67321 0.14079,-0.11119 0.28528,-0.21761 0.42793,-0.32641 0.39046,-0.27789 0.7305,-0.69922 1.13847,-0.93986 2.24009,-1.32131 4.50642,-2.59763 6.7607,-3.8946 0.12756,-0.0734 0.51217,-0.29011 0.38478,-0.21644 -2.00704,1.16067 -4.01583,2.31831 -6.02374,3.47746 0.75248,-0.324 1.26457,-0.9775 1.99913,-1.3398 0.73683,-0.58242 1.40942,-1.24617 2.21517,-1.74215 0.71764,-0.64528 1.30633,-1.38934 1.80799,-2.21455 0.6462,-0.84451 1.30761,-1.6786 1.80928,-2.61996 0.36748,-1.0423 0.16711,-1.56099 -0.7814,-2.16974 -2.57672,-1.31828 -5.4295,-2.0551 -8.06703,-3.24067 -3.12474,-1.13745 -6.23164,-2.49957 -9.52875,-3.03789 -1.53189,-0.0653 -3.0663,-0.0186 -4.59935,-0.0352 -1.9456,-0.006 -3.89106,-0.0367 -5.83659,-0.0526 -3.27629,-0.0144 -6.55247,-0.0476 -9.82882,-0.0474 -4.52021,-0.046 -9.04122,-0.0364 -13.56097,0.0475 -5.1178,0.13164 -10.24554,0.30916 -15.32036,1.03571 -3.19262,0.48139 -6.3891,0.93804 -9.57743,1.44659 -4.24824,0.72667 -8.50139,1.40305 -12.78089,1.92256 -5.025115,0.68401 -10.085906,1.20871 -15.165862,1.00452 -3.54936,-0.0635 -7.109406,-0.10435 -10.63288,-0.58766 -1.131303,-0.22862 -1.813252,-0.3352 -2.934917,-0.70083 -2.770918,-0.90325 -5.251432,-2.48679 -7.646108,-4.11009 -2.3149,-1.67237 -4.658279,-3.33494 -6.597166,-5.45611 -0.786548,-0.8605 -1.61321,-1.57472 -1.458116,-2.81667 0.05137,-0.41136 0.307277,-0.77006 0.460916,-1.15509 6.007053,-5.44786 13.744354,-8.64196 20.456363,-13.03542 4.096157,-2.27816 8.212832,-4.48672 12.385806,-6.62111 1.350397,-0.69071 2.703366,-1.37641 4.050819,-2.07284 1.203068,-0.6218 2.273014,-1.61474 3.600673,-1.88182 1.069822,-0.21521 -1.857805,1.14539 -2.786708,1.71808 3.66659,-2.14104 7.17585,-4.5234 10.33231,-7.37868 1.5098,-1.50358 2.9247,-3.07212 4.2045,-4.77883 0.9133,-1.18001 1.77052,-2.40268 2.59191,-3.64868 0.64934,-1.31285 1.27188,-2.63559 1.96038,-3.92837 0.74508,-1.68664 1.51872,-3.37145 2.48317,-4.94486 0.61008,-0.97516 1.31705,-1.91943 1.70506,-3.01052 0.33117,-0.7236 0.59193,-1.46882 0.91916,-2.19234 0.45326,-0.66677 0.99697,-1.26559 1.37963,-1.98562 0.80719,-0.92391 1.32297,-2.06804 1.83198,-3.1745 0.53086,-1.41081 1.1798,-2.77511 1.66142,-4.20642 0.7847,-1.99197 1.54508,-3.98896 2.40358,-5.95153 0.42268,-1.35997 0.85552,-2.71721 1.30434,-4.06815 0.38857,-0.94556 0.62425,-1.87018 0.51063,-2.90972 -0.0207,-1.09984 -0.0419,-2.20805 -0.26287,-3.28972 -0.18858,-0.80241 -0.39197,-1.62 -0.71738,-2.37527 -0.40659,-0.62798 -0.84554,-1.22023 -1.35033,-1.77324 -0.57076,-0.65839 -1.07015,-1.40381 -1.83636,-1.8551 -0.8516,-0.45719 -1.71657,-0.66355 -2.69311,-0.56494 -1.00242,0.037 -2.00754,0.0968 -2.99009,0.31357 -3.44041,0.76594 -5.47141,1.82377 3.83859,-2.97134 -0.859,0.31637 -0.8674,0.90132 -1.45655,1.50758 -0.50824,0.84317 -1.13694,1.58148 -1.7812,2.32383 -1.20955,1.35702 -2.16324,2.94227 -3.54223,4.15522 -2.11249,2.16081 -4.27652,4.27515 -6.24754,6.56808 -2.29485,2.6811 -4.50244,5.42801 -6.63992,8.23646 -2.27778,3.05314 -4.428064,6.2018 -6.812551,9.17538 -2.926645,3.713 -5.855667,7.4239 -8.863553,11.07198 -2.982942,3.63711 -6.006056,7.28915 -9.802023,10.11767 -2.479493,1.47096 -4.950615,2.95612 -7.438477,4.41287 -1.637769,0.95899 -3.45044,1.58346 -5.338294,1.79742 -2.236775,0.0928 -4.46302,-0.12906 -6.41518,-1.33029 -2.188484,-1.49882 -4.309657,-3.12589 -6.111801,-5.08353 -2.056635,-2.44749 -3.527613,-4.97167 -4.250626,-8.12864 -0.282208,-1.22964 -0.666779,-2.68636 -0.752962,-3.95167 -0.172166,-2.52769 0.493275,-5.24908 0.660841,-7.76619 0.403234,-2.94824 0.866878,-5.89874 0.981878,-8.87476 0,0 6.663296,-3.39512 6.663296,-3.39512 z"
       inkscape:connector-curvature="0" />
    <ellipse
       style="opacity:1;fill:none;fill-opacity:1;stroke:#000000;stroke-width:1.37100005;stroke-miterlimit:4;stroke-dasharray:none;stroke-opacity:1"
       id="path7928"
       cx="92.176422"
       cy="983.41925"
       rx="47.982246"
       ry="3.3390143" />
    <path
       style="color:#000000;font-style:normal;font-variant:normal;font-weight:normal;font-stretch:normal;font-size:medium;line-height:normal;font-family:sans-serif;text-indent:0;text-align:start;text-decoration:none;text-decoration-line:none;text-decoration-style:solid;text-decoration-color:#000000;letter-spacing:normal;word-spacing:normal;text-transform:none;direction:ltr;block-progression:tb;writing-mode:lr-tb;baseline-shift:baseline;text-anchor:start;white-space:normal;clip-rule:nonzero;display:inline;overflow:visible;visibility:visible;opacity:1;isolation:auto;mix-blend-mode:normal;color-interpolation:sRGB;color-interpolation-filters:linearRGB;solid-color:#000000;solid-opacity:1;fill:#000000;fill-opacity:1;fill-rule:nonzero;stroke:none;stroke-width:1.04700005;stroke-linecap:butt;stroke-linejoin:miter;stroke-miterlimit:4;stroke-dasharray:none;stroke-dashoffset:0;stroke-opacity:1;color-rendering:auto;image-rendering:auto;shape-rendering:auto;text-rendering:auto;enable-background:accumulate"
       d="m 44.458641,1007.9188 0.112724,-23.24553 -1.059919,-0.73618 0,23.98091 m 97.390214,0 0,-24.7171 -1.05794,1.47237 -0.0893,23.24553"
       id="rect7938"
       inkscape:connector-curvature="0"
       sodipodi:nodetypes="cccccccc" />
    <path
       style="opacity:1;fill:none;fill-opacity:1;stroke:#000000;stroke-width:0.97299999;stroke-miterlimit:4;stroke-dasharray:none;stroke-opacity:1"
       d="m 140.38329,1007.8983 c -3e-5,1.8432 -21.56669,3.3374 -48.170471,3.3374 -26.603797,0 -48.23358,-1.4784 -48.233614,-3.3216"
       id="path7928-3"
       inkscape:connector-curvature="0"
       sodipodi:nodetypes="csc" />
    <text
       xml:space="preserve"
       style="font-style:normal;font-weight:normal;font-size:17.8429966px;line-height:125%;font-family:sans-serif;letter-spacing:0px;word-spacing:0px;fill:#000000;fill-opacity:1;stroke:none;stroke-width:1px;stroke-linecap:butt;stroke-linejoin:miter;stroke-opacity:1"
       x="57.662754"
       y="1003.0185"
       id="text8056"
       sodipodi:linespacing="125%"><tspan
         sodipodi:role="line"
         id="tspan8058"
         x="57.662754"
         y="1003.0185">Storage</tspan></text>
  </g>
</svg>
